<svg width="24" height="24" viewBox="0 0 24 24" fill="none" xmlns="http://www.w3.org/2000/svg">
<g id="bi:arrow-left-short">
<path id="Vector" fill-rule="evenodd" clip-rule="evenodd" d="M21 12C21 12.3031 20.8815 12.5937 20.6705 12.808C20.4596 13.0223 20.1735 13.1427 19.8751 13.1427H6.84233L11.6725 18.0469C11.7771 18.1531 11.8601 18.2793 11.9167 18.4181C11.9733 18.5569 12.0024 18.7057 12.0024 18.8559C12.0024 19.0062 11.9733 19.1549 11.9167 19.2937C11.8601 19.4325 11.7771 19.5587 11.6725 19.6649C11.568 19.7711 11.4438 19.8554 11.3071 19.9129C11.1705 19.9704 11.024 20 10.8761 20C10.7282 20 10.5818 19.9704 10.4451 19.9129C10.3085 19.8554 10.1843 19.7711 10.0797 19.6649L3.33047 12.809C3.22572 12.7029 3.14261 12.5768 3.0859 12.4379C3.02919 12.2991 3 12.1503 3 12C3 11.8497 3.02919 11.7009 3.0859 11.5621C3.14261 11.4232 3.22572 11.2971 3.33047 11.191L10.0797 4.3351C10.2909 4.12054 10.5774 4 10.8761 4C11.1748 4 11.4613 4.12054 11.6725 4.3351C11.8838 4.54966 12.0024 4.84066 12.0024 5.14409C12.0024 5.44753 11.8838 5.73853 11.6725 5.95309L6.84233 10.8573H19.8751C20.1735 10.8573 20.4596 10.9777 20.6705 11.192C20.8815 11.4063 21 11.697 21 12Z" fill="white"/>
</g>
</svg>
