<svg width="80" height="80" viewBox="0 0 80 80" fill="none" xmlns="http://www.w3.org/2000/svg">
<rect width="80" height="80" rx="40" fill="#F7E6CD"/>
<g clip-path="url(#clip0_236_174)">
<path d="M30.4139 18.6472C30.9283 18.7445 31.4505 18.8133 31.957 18.9438C33.3723 19.3068 34.5875 18.9827 35.6298 17.9417C37.954 15.6181 41.0559 15.6307 43.3993 17.9646C44.4076 18.9724 45.6127 19.3584 46.9647 18.9472C50.122 17.9875 53.1086 19.9413 53.7756 22.9315C54.0864 24.3287 55.036 25.1922 56.397 25.5655C59.5623 26.4485 61.1144 29.1512 60.2914 32.3705C59.924 33.8043 60.2586 35.0331 61.2885 36.0856C63.5595 38.4081 63.5584 41.5896 61.2885 43.9155C60.2586 44.9691 59.9319 46.1991 60.2959 47.6318C61.1189 50.8465 59.5645 53.548 56.3948 54.4333C54.9637 54.8341 54.0989 55.7858 53.7168 57.238C52.999 59.9648 50.7234 61.5429 47.9516 61.2589C47.6717 61.227 47.3952 61.1703 47.1252 61.0894C45.6488 60.6611 44.3986 61.0253 43.3111 62.1201C41.6889 63.7498 39.7627 64.2285 37.6227 63.4027C36.9264 63.1336 36.2662 62.6503 35.7191 62.1258C34.5886 61.0459 33.3519 60.6851 31.8451 61.0951C28.8901 61.9048 26.0798 60.2557 25.2885 57.2609C24.8884 55.7366 23.967 54.8055 22.4624 54.3909C19.4532 53.5595 17.874 50.7617 18.6789 47.7097C19.0689 46.2323 18.7478 44.9783 17.6863 43.8903C15.4368 41.5838 15.439 38.4127 17.6863 36.1028C18.7467 35.0137 19.0666 33.7585 18.6755 32.2811C17.8695 29.2348 19.4577 26.4302 22.4647 25.6033C23.9648 25.191 24.8872 24.2542 25.284 22.7299C25.934 20.2837 27.9891 18.6804 30.4139 18.6472ZM58.8693 30.8382C58.8829 29.1638 57.8237 27.738 56.1393 27.2811C53.9847 26.6947 52.6429 25.3342 52.0607 23.1491C51.5068 21.0716 49.6653 20.0077 47.6136 20.562C45.4804 21.1346 43.657 20.6525 42.0902 19.0732C40.5709 17.534 38.4265 17.5352 36.9139 19.0732C35.3517 20.6594 33.5226 21.1438 31.3918 20.562C29.3423 20.0077 27.4985 21.0716 26.9435 23.1479C26.3602 25.3239 25.0217 26.6913 22.866 27.2811C20.8154 27.8422 19.7629 29.7101 20.3101 31.7864C20.8753 33.9463 20.3994 35.7947 18.8405 37.382C17.3201 38.9246 17.3189 41.0834 18.8405 42.6248C20.4039 44.211 20.8832 46.0605 20.3101 48.2204C19.7641 50.2979 20.8154 52.1669 22.8637 52.7281C25.0183 53.3167 26.3591 54.675 26.9435 56.8589C27.4985 58.9364 29.3378 60.0003 31.3906 59.4471C33.5238 58.8745 35.3472 59.3635 36.9139 60.9359C38.4446 62.4763 40.5732 62.4728 42.0914 60.9359C43.6559 59.3509 45.4827 58.8653 47.6136 59.4471C49.663 60.0014 51.5079 58.9341 52.0607 56.8589C52.6429 54.6761 53.9824 53.3179 56.1393 52.7269C58.1888 52.1658 59.2412 50.2967 58.693 48.2204C58.1278 46.0594 58.6138 44.2225 60.1625 42.6157C60.6051 42.1537 60.938 41.5956 61.1359 40.9837C61.553 39.6175 61.1845 38.3875 60.1761 37.3797C58.6014 35.805 58.1164 33.944 58.6998 31.7876C58.7778 31.4783 58.8117 31.1542 58.8693 30.8382Z" fill="#703D2A"/>
<path d="M20.9035 39.9646C21.0165 30.8222 27.5064 23.0541 36.4086 21.5104C36.6686 21.4657 36.9286 21.4291 37.1897 21.3958C37.8216 21.3168 38.2569 21.6066 38.3122 22.1391C38.3642 22.6499 38.0342 23.0118 37.4192 23.0942C35.2536 23.3794 33.1606 24.0764 31.2504 25.1488C25.51 28.3668 22.0939 34.9977 22.7721 41.6114C23.5883 49.5719 29.4067 55.7183 37.2327 56.8876C46.1157 58.2161 54.7646 51.7249 56.0952 42.7303C57.472 33.4276 51.6763 25.0778 42.574 23.2523C42.2428 23.1858 41.907 23.1446 41.5724 23.0954C40.9643 23.006 40.6093 22.6373 40.6579 22.1506C40.7099 21.618 41.1485 21.31 41.7759 21.3924C45.4894 21.8814 48.8072 23.3095 51.6107 25.8267C56.0771 29.835 58.2102 34.9084 57.9796 40.9438C57.6405 49.7677 50.8262 57.3365 42.2145 58.5459C32.4057 59.9202 23.43 53.5916 21.3862 43.8114C21.1251 42.5482 21.0595 41.2415 20.9035 39.9646Z" fill="#703D2A"/>
<path d="M36.8043 39.7526C37.2644 39.2659 37.6589 38.8364 38.0681 38.4173C40.4179 36.0306 42.7704 33.6467 45.1255 31.2653C46.5408 29.8315 47.9621 29.8357 49.3895 31.2779C50.0022 31.8964 50.6216 32.5091 51.2208 33.1389C52.3399 34.3139 52.3512 35.8577 51.2208 37.011C48.9848 39.2968 46.739 41.5732 44.4834 43.84C44.0097 44.3187 43.527 44.361 43.1528 43.982C42.7787 43.6029 42.8137 43.1162 43.2874 42.634C45.4653 40.4199 47.6452 38.2112 49.8269 36.0077C50.5549 35.2691 50.5527 34.8866 49.819 34.1387C49.2357 33.5443 48.6535 32.95 48.0646 32.3625C47.4756 31.775 47.0155 31.775 46.4221 32.3751C43.5093 35.3229 40.5977 38.2719 37.6872 41.222C36.9614 41.9561 36.6279 41.9572 35.9067 41.2277C34.8566 40.1649 33.8086 39.0976 32.7551 38.0371C32.1503 37.429 31.7173 37.429 31.1148 38.0371C30.4207 38.7334 29.7266 39.432 29.0416 40.1374C28.5024 40.694 28.5012 41.1613 29.0495 41.7179C30.9999 43.7029 32.9544 45.6819 34.9131 47.6547C35.9305 48.6694 37.3096 48.6579 38.3383 47.6478C38.986 47.0111 39.6123 46.3526 40.26 45.7124C40.693 45.283 41.2017 45.244 41.5555 45.5979C41.9094 45.9518 41.8856 46.4751 41.4628 46.9103C40.7654 47.6295 40.0735 48.359 39.3421 49.0427C37.798 50.4834 35.4252 50.5121 33.916 49.0427C31.8055 46.9813 29.7402 44.8707 27.6885 42.744C26.6711 41.6972 26.705 40.1477 27.7054 39.0861C28.4854 38.2608 29.2824 37.4523 30.0963 36.6605C31.1781 35.6069 32.7178 35.6103 33.7928 36.6766C34.7808 37.6546 35.744 38.6693 36.8043 39.7526Z" fill="#703D2A"/>
</g>
<defs>
<clipPath id="clip0_236_174">
<rect width="47" height="48" fill="white" transform="translate(16 16)"/>
</clipPath>
</defs>
</svg>
