<svg width="80" height="80" viewBox="0 0 80 80" fill="none" xmlns="http://www.w3.org/2000/svg">
<rect width="80" height="80" rx="40" fill="#F7E6CD"/>
<g clip-path="url(#clip0_236_175)">
<path d="M15 33.7683C15.2937 33.0648 15.8398 32.7866 16.616 32.8189C17.4773 32.8521 18.3416 32.8189 19.2049 32.8284C19.7696 32.8284 20.0955 33.1132 20.0858 33.5594C20.074 33.9867 19.7569 34.243 19.2137 34.2458C18.321 34.2458 17.4284 34.2458 16.5015 34.2458V61.5379H42.3628C42.3628 60.6607 42.354 59.8128 42.3628 58.965C42.3696 58.4486 42.6662 58.1476 43.1174 58.16C43.5266 58.1714 43.8075 58.4296 43.8173 58.8587C43.8388 59.8214 43.8564 60.7841 43.8408 61.7468C43.828 62.4863 43.3435 62.9392 42.5811 62.981C42.4519 62.9886 42.3207 62.981 42.1896 62.981C33.6761 62.981 25.1607 62.9844 16.6434 62.9914C15.876 62.9914 15.324 62.7645 14.9922 62.0866L15 33.7683Z" fill="#703D2A"/>
<path d="M41.3811 32.8246H56.6638C57.8099 32.8246 58.1848 33.1427 58.3179 34.2354C58.6908 37.319 60.4154 39.3108 63.4633 40.2393C64.6682 40.6068 65.1723 41.4128 64.9472 42.6365C64.4901 45.1201 64.0183 47.6009 63.5632 50.0845C63.4555 50.6693 63.1511 51.0785 62.5619 51.2475C61.9883 51.4117 61.5165 51.2181 61.1113 50.807C58.9335 48.5958 56.2732 47.6028 53.1216 47.7765C48.5859 48.0281 44.704 51.4279 44.0189 55.7837C44.0023 55.8928 43.9954 56.0049 43.968 56.1112C43.8535 56.5555 43.5413 56.7758 43.1214 56.7122C42.7298 56.6542 42.4509 56.3561 42.5409 55.9251C42.7308 55.0175 42.8825 54.0795 43.2437 53.2317C44.8861 49.3658 47.9272 47.1271 52.1428 46.4768C55.8846 45.8996 59.1538 46.961 61.8807 49.5348C61.9267 49.5775 61.9785 49.6164 62.0285 49.6554C62.064 49.6695 62.1007 49.681 62.1381 49.6895C62.2731 48.9974 62.4141 48.3129 62.5423 47.6256C62.8607 45.9167 63.1762 44.2078 63.4888 42.4989C63.6092 41.841 63.5426 41.7517 62.8859 41.5428C59.6207 40.4985 57.6142 38.3672 56.9525 35.0775C56.8996 34.8164 56.8742 34.5516 56.8292 34.2411H56.285C51.1085 34.2411 45.9318 34.2383 40.7547 34.2326C40.5973 34.2219 40.4398 34.2521 40.2986 34.3202C40.1573 34.3883 40.0373 34.4918 39.9511 34.6199C36.3524 39.2251 32.7456 43.823 29.1307 48.4136C28.3927 49.3535 27.4971 49.6781 26.5017 49.3686C25.3076 48.9993 24.6958 47.8117 25.1314 46.6401C26.4704 43.0002 28.0834 39.5017 30.6879 36.5092C31.2948 35.8133 31.8341 35.0614 32.4752 34.2459H22.6541C22.5076 34.2535 22.3607 34.2506 22.2146 34.2373C21.8026 34.1775 21.5657 33.9269 21.5657 33.5319C21.5657 33.1579 21.7986 32.9158 22.1804 32.8417C22.3426 32.8209 22.5065 32.8155 22.6697 32.8256H32.7375C32.208 32.1515 31.7381 31.5401 31.2468 30.9467C31.191 30.8784 31.0119 30.8793 30.8944 30.8907C26.6994 31.3113 23.2805 28.1005 23.5898 24.0105C23.6182 23.6459 23.536 23.3906 23.256 23.1437C22.798 22.7421 22.3673 22.3092 21.9396 21.8763C21.0156 20.9421 21.0039 19.5702 21.9024 18.6807C22.8009 17.7911 24.2515 17.7702 25.2302 18.6807C25.5111 18.9408 25.7568 19.237 25.9154 19.4041C26.9372 19.0101 27.8054 18.543 28.7352 18.3436C31.2067 17.8082 33.3688 18.4917 35.0425 20.324C36.7456 22.1915 37.1332 24.3789 36.2816 26.7305C36.1123 27.1986 36.1221 27.5204 36.4676 27.8698C36.6448 28.0473 36.7769 28.2685 36.9736 28.5277C37.3054 28.1043 37.6304 27.734 37.8927 27.3258C37.9681 27.209 37.8927 26.9698 37.833 26.8065C37.5088 25.9736 37.3677 25.0843 37.4187 24.1955C37.4698 23.3066 37.7118 22.438 38.1293 21.6452C38.5468 20.8525 39.1305 20.1531 39.8431 19.5921C40.5556 19.031 41.3812 18.6206 42.2669 18.3873C45.9295 17.4189 49.6244 19.6215 50.4358 23.2453C51.2286 26.7913 48.7161 30.3154 44.9938 30.8404C44.4202 30.9221 43.828 30.8689 43.2447 30.8993C43.0891 30.9069 42.8786 30.9439 42.7925 31.0464C42.3295 31.5923 41.8979 32.1648 41.3811 32.8246ZM38.7521 28.6236C38.7462 28.6312 38.6816 28.6967 38.6258 28.7679C36.2102 31.843 33.8455 34.956 31.3672 37.9769C29.1326 40.7045 27.7516 43.828 26.5173 47.0426C26.3705 47.4224 26.4429 47.7338 26.8012 47.9417C27.1594 48.1496 27.4863 48.0756 27.7672 47.7813C27.8436 47.6996 27.9121 47.6104 27.9816 47.523C32.3496 41.9647 36.7172 36.4054 41.0845 30.8452C41.1883 30.7132 41.2861 30.5765 41.3253 30.5233L38.7521 28.6236ZM49.0988 24.49C49.0988 21.7956 46.781 19.5712 43.9827 19.5807C41.1844 19.5902 38.8764 21.8127 38.8627 24.508C38.85 27.2546 41.1393 29.4999 43.9494 29.5075C46.8407 29.5151 49.1007 27.3144 49.1017 24.49H49.0988ZM35.2285 24.6124C35.2285 21.7946 33.0027 19.5968 30.129 19.5807C27.3258 19.5664 25.0159 21.806 24.9973 24.5536C24.9797 27.2413 27.3062 29.4989 30.0967 29.5027C32.9362 29.5084 35.2285 27.322 35.2285 24.6124ZM34.0921 32.1914C34.7176 31.3939 35.3205 30.6353 35.9077 29.8654C35.934 29.8156 35.9477 29.7604 35.9477 29.7045C35.9477 29.6485 35.934 29.5934 35.9077 29.5435C35.6973 29.2312 35.4565 28.9388 35.2774 28.7043L32.7815 30.5233L34.0921 32.1914ZM25.0218 20.4475C24.7232 20.1731 24.4345 19.8778 24.1115 19.6167C23.9484 19.4823 23.739 19.4126 23.5252 19.4216C23.3114 19.4306 23.109 19.5176 22.9585 19.6652C22.6649 19.9547 22.5954 20.4247 22.8802 20.7427C23.2482 21.1557 23.6691 21.525 24.0792 21.9257C24.3953 21.4329 24.69 20.9696 25.0218 20.4503V20.4475Z" fill="#703D2A"/>
<path d="M62.3867 43.7957C62.2888 44.3445 62.2007 44.9844 62.0696 45.6166C62.0309 45.797 61.9203 45.9553 61.762 46.057C61.6036 46.1587 61.4102 46.1956 61.2239 46.1597C61.0372 46.1254 60.8715 46.0221 60.7619 45.8715C60.6523 45.7209 60.6074 45.5349 60.6366 45.3527C60.7257 44.729 60.8324 44.1062 60.9567 43.49C61.0428 43.0751 61.3903 42.8397 61.7613 42.8891C62.1694 42.9432 62.4112 43.2574 62.3867 43.7957Z" fill="#703D2A"/>
<path d="M56.6539 40.2791C56.556 40.2117 56.2869 40.1272 56.1773 39.9516C55.8228 39.3877 55.5035 38.8037 55.221 38.2028C55.0125 37.7547 55.1936 37.3882 55.6125 37.2325C55.9991 37.0882 56.3407 37.2458 56.5619 37.6598C56.8301 38.1629 57.1061 38.6623 57.3782 39.1636C57.6572 39.6915 57.3557 40.2611 56.6539 40.2791Z" fill="#703D2A"/>
<path d="M20.1807 36.9914C19.8557 36.9914 19.5308 37.0047 19.2068 36.9914C18.78 36.9677 18.505 36.6838 18.503 36.2955C18.4984 36.2043 18.5129 36.1132 18.5456 36.0276C18.5783 35.9421 18.6286 35.8638 18.6933 35.7976C18.7581 35.7314 18.8361 35.6786 18.9225 35.6425C19.0089 35.6063 19.1019 35.5875 19.196 35.5873C19.8606 35.5635 20.5272 35.5645 21.1918 35.5873C21.3817 35.59 21.563 35.6646 21.697 35.7951C21.831 35.9256 21.9072 36.1018 21.9092 36.286C21.9092 36.6753 21.6028 36.9753 21.1546 36.9943C20.8306 37.0028 20.5056 36.9914 20.1807 36.9914Z" fill="#703D2A"/>
<path d="M27.5176 36.9905C27.1927 36.9905 26.8677 37.0038 26.5389 36.9905C26.1111 36.9687 25.8322 36.6886 25.8253 36.3041C25.8189 36.2127 25.8318 36.121 25.8633 36.0347C25.8947 35.9483 25.9441 35.8691 26.0082 35.8019C26.0724 35.7346 26.15 35.6809 26.2364 35.6438C26.3228 35.6068 26.416 35.5872 26.5105 35.5864C27.1751 35.5608 27.8426 35.5627 28.5072 35.5864C28.6053 35.5865 28.7023 35.606 28.7924 35.6435C28.8825 35.681 28.9639 35.7358 29.0316 35.8047C29.0993 35.8735 29.1519 35.955 29.1862 36.0441C29.2206 36.1332 29.236 36.2281 29.2315 36.3231C29.2119 36.7029 28.9202 36.9658 28.4905 36.9972C28.4582 36.9972 28.4259 36.9972 28.3927 36.9972H27.5118L27.5176 36.9905Z" fill="#703D2A"/>
<path d="M42.1485 36.9895C41.8245 36.9895 41.4986 37.0075 41.1756 36.9895C40.7654 36.961 40.5178 36.7379 40.4904 36.3306C40.4797 36.2399 40.4884 36.148 40.5159 36.0607C40.5434 35.9734 40.5892 35.8926 40.6503 35.8232C40.7115 35.7538 40.7867 35.6974 40.8714 35.6574C40.956 35.6175 41.0482 35.5949 41.1423 35.591C41.8392 35.5626 42.539 35.5578 43.2349 35.591C43.6431 35.6129 43.8692 35.8977 43.8878 36.2926C43.9044 36.6648 43.5941 36.9648 43.1752 36.9876C42.8317 37.0047 42.4901 36.9904 42.1485 36.9895Z" fill="#703D2A"/>
<path d="M49.5343 35.574C49.8426 35.574 50.1519 35.5607 50.4593 35.574C50.9075 35.5978 51.2178 35.9025 51.2149 36.287C51.2119 36.6715 50.9027 36.9753 50.4505 36.9858C49.8182 36.9991 49.1839 37 48.5516 36.9858C48.0936 36.9753 47.8058 36.6848 47.8087 36.2794C47.8117 35.874 48.1024 35.6054 48.5604 35.5721C48.5927 35.5721 48.625 35.5721 48.6583 35.5721H49.5392L49.5343 35.574Z" fill="#703D2A"/>
<path d="M19.2949 41.4508C19.2949 41.7822 19.3116 42.1154 19.2949 42.4439C19.2909 42.6274 19.2137 42.8022 19.0796 42.9316C18.9454 43.0611 18.7647 43.135 18.5755 43.1379C18.3858 43.1409 18.2025 43.0709 18.0658 42.9432C17.9291 42.8154 17.8502 42.6403 17.8464 42.4562C17.8238 41.8116 17.8248 41.1641 17.8464 40.5185C17.8462 40.4275 17.8647 40.3373 17.9008 40.2532C17.9369 40.1691 17.9899 40.0929 18.0567 40.0288C18.1234 39.9648 18.2026 39.9143 18.2897 39.8802C18.3767 39.8461 18.4699 39.8291 18.5638 39.8302C18.7531 39.8264 18.9363 39.8953 19.0734 40.0219C19.2106 40.1485 19.2905 40.3226 19.2959 40.5062C19.3126 40.8195 19.2949 41.1356 19.2949 41.4508Z" fill="#703D2A"/>
<path d="M50.9584 44.9332C50.8517 45.0367 50.6853 45.3054 50.4436 45.4079C49.869 45.6585 49.2612 45.8389 48.6622 46.0354C48.4864 46.1019 48.2909 46.0995 48.117 46.0286C47.9431 45.9577 47.8045 45.824 47.7304 45.6557C47.6894 45.5731 47.6665 45.4833 47.6631 45.3917C47.6596 45.3001 47.6757 45.2089 47.7104 45.1237C47.745 45.0384 47.7975 44.9611 47.8644 44.8964C47.9314 44.8318 48.0114 44.7813 48.0994 44.7481C48.7426 44.4905 49.4005 44.2686 50.0697 44.0835C50.563 43.9497 50.9584 44.2857 50.9584 44.9332Z" fill="#703D2A"/>
<path d="M17.8355 48.5427C17.8355 48.2437 17.8208 47.9437 17.8355 47.6456C17.86 47.2107 18.1722 46.925 18.5833 46.9364C18.6772 46.9372 18.7699 46.9561 18.8562 46.9919C18.9425 47.0277 19.0207 47.0797 19.0862 47.1449C19.1517 47.2101 19.2033 47.2872 19.2379 47.3719C19.2725 47.4565 19.2896 47.5469 19.288 47.638C19.3066 48.2674 19.3076 48.8987 19.288 49.5282C19.2896 49.6232 19.2714 49.7176 19.2344 49.8056C19.1974 49.8936 19.1423 49.9734 19.0726 50.0403C19.0029 50.1071 18.92 50.1595 18.8288 50.1943C18.7376 50.2292 18.6401 50.2458 18.5422 50.2431C18.1575 50.2317 17.857 49.9459 17.8355 49.5358C17.8208 49.2054 17.8355 48.8741 17.8355 48.5427Z" fill="#703D2A"/>
<path d="M44.8439 48.2911C44.7069 48.537 44.6325 48.7297 44.5082 48.8845C44.1598 49.3193 43.7888 49.7389 43.4316 50.1642C43.1095 50.544 42.7327 50.6294 42.3715 50.3902C42.0104 50.151 41.9399 49.7484 42.2423 49.3554C42.6305 48.8318 43.0591 48.3376 43.5245 47.8772C43.689 47.7205 44.0776 47.6655 44.3076 47.7329C44.52 47.7936 44.6599 48.086 44.8439 48.2911Z" fill="#703D2A"/>
<path d="M39.6329 56.1083C39.7063 55.6649 39.7905 55.0412 39.9168 54.425C40.0058 53.9912 40.3621 53.7766 40.7761 53.8554C41.1676 53.9276 41.4084 54.2807 41.3458 54.7099C41.2626 55.2861 41.1745 55.8615 41.0864 56.4368C41.0189 56.8839 40.7243 57.1374 40.3034 57.1118C39.8825 57.0862 39.6114 56.7624 39.6329 56.1083Z" fill="#703D2A"/>
<path d="M19.2959 55.7362C19.2959 56.0362 19.3106 56.3362 19.2959 56.6343C19.2705 57.0653 18.9494 57.3615 18.5481 57.3492C18.3584 57.3447 18.1782 57.268 18.0463 57.1357C17.9144 57.0033 17.8416 56.8259 17.8434 56.6419C17.8248 56.0125 17.8238 55.3811 17.8434 54.7517C17.8409 54.6567 17.8586 54.5622 17.8954 54.4741C17.9321 54.386 17.9872 54.3062 18.0572 54.2396C18.1272 54.1731 18.2105 54.1212 18.3021 54.0873C18.3936 54.0534 18.4914 54.0381 18.5892 54.0425C18.9808 54.0529 19.2744 54.3273 19.2959 54.7441C19.3106 55.0716 19.2959 55.4048 19.2959 55.7362Z" fill="#703D2A"/>
<path d="M55.6781 43.6533C56.3417 43.7976 57.0092 43.9258 57.666 44.0919C58.0957 44.2002 58.2533 44.5173 58.1759 44.9302C58.1074 45.2986 57.7551 45.517 57.3273 45.4448C56.7055 45.3391 56.0856 45.2208 55.4677 45.0897C55.0125 44.9948 54.7825 44.6758 54.851 44.2714C54.9117 43.8973 55.2151 43.6856 55.6781 43.6533Z" fill="#703D2A"/>
<path d="M22.2048 60.2334C21.8642 60.2334 21.5196 60.2496 21.1829 60.2334C20.763 60.2078 20.5213 59.9486 20.5086 59.5613C20.4958 59.1739 20.7249 58.8758 21.1418 58.8568C21.8536 58.8221 22.5667 58.8221 23.2785 58.8568C23.6916 58.8767 23.9128 59.1597 23.8991 59.5651C23.8853 59.9704 23.6377 60.204 23.2257 60.2296C22.887 60.2524 22.5444 60.2334 22.2048 60.2334Z" fill="#703D2A"/>
<path d="M29.5183 60.2362C29.1943 60.2362 28.8684 60.2523 28.5454 60.2362C28.1206 60.2106 27.8309 59.9191 27.826 59.5489C27.8239 59.4577 27.8405 59.3671 27.8748 59.2822C27.9091 59.1973 27.9604 59.1199 28.0257 59.0543C28.0911 58.9888 28.1692 58.9365 28.2556 58.9005C28.3419 58.8645 28.4348 58.8454 28.5287 58.8444C29.208 58.8178 29.8912 58.8159 30.5695 58.8501C31.0051 58.872 31.2546 59.1833 31.2272 59.5783C31.1998 59.9732 30.9502 60.2087 30.5421 60.2343C30.2005 60.2523 29.8589 60.2353 29.5183 60.2362Z" fill="#703D2A"/>
<path d="M36.8493 60.2325C36.5087 60.2325 36.1642 60.2506 35.8275 60.2278C35.4076 60.1993 35.1698 59.943 35.1619 59.549C35.1541 59.155 35.3861 58.8692 35.803 58.8493C36.498 58.818 37.1968 58.8151 37.8927 58.8493C38.3293 58.8692 38.5779 59.1797 38.5534 59.5746C38.5289 59.9696 38.2813 60.2079 37.8683 60.2392C37.5296 60.261 37.1831 60.2392 36.8474 60.2392L36.8493 60.2325Z" fill="#703D2A"/>
<path d="M38.1589 33.061C38.1612 33.1746 38.1402 33.2876 38.097 33.3932C38.0537 33.4989 37.9892 33.5951 37.9072 33.6763C37.8252 33.7574 37.7273 33.8219 37.6192 33.8659C37.5112 33.9099 37.3952 33.9326 37.278 33.9325C37.0494 33.925 36.8323 33.8337 36.6703 33.6771C36.5083 33.5205 36.4135 33.3102 36.4049 33.0885C36.4043 32.9749 36.427 32.8622 36.4717 32.7572C36.5165 32.6522 36.5824 32.5569 36.6657 32.4769C36.7489 32.3968 36.8477 32.3337 36.9564 32.2912C37.0651 32.2487 37.1814 32.2277 37.2985 32.2293C37.4115 32.2285 37.5236 32.2493 37.6282 32.2908C37.7328 32.3322 37.8278 32.3934 37.9079 32.4708C37.9879 32.5482 38.0513 32.6402 38.0944 32.7415C38.1375 32.8428 38.1594 32.9514 38.1589 33.061Z" fill="#703D2A"/>
<path d="M43.9259 28.4527C42.1885 28.4527 40.7018 27.358 40.1624 25.6738C39.6417 24.0465 40.2231 22.3509 41.6306 21.4016C42.1014 21.0826 42.5223 21.1063 42.7905 21.468C43.0587 21.8297 42.953 22.2019 42.4851 22.5551C41.5063 23.2937 41.1911 24.3731 41.6355 25.463C42.0534 26.4912 43.0763 27.1207 44.1686 27.0229C44.742 26.9822 45.2846 26.7558 45.7092 26.3799C46.1339 26.004 46.4158 25.5005 46.5098 24.9504C46.7144 23.8908 46.1036 22.7753 45.0603 22.3073C44.9087 22.2516 44.7615 22.1853 44.6198 22.1088C44.287 21.8952 44.197 21.5772 44.3526 21.2392C44.517 20.8822 44.8322 20.7218 45.2335 20.8547C46.7017 21.337 47.611 22.3272 47.9134 23.7855C48.4253 26.2415 46.5186 28.4479 43.9259 28.4527Z" fill="#703D2A"/>
<path d="M26.1131 24.5014C26.1473 22.3548 27.9728 20.6089 30.1496 20.6516C32.4438 20.6906 34.1723 22.4156 34.141 24.6343C34.1126 26.7534 32.2637 28.4774 30.0585 28.4433C28.9984 28.4221 27.9897 27.9963 27.2511 27.2584C26.5125 26.5205 26.1036 25.5299 26.1131 24.5014ZM30.1496 22.0767C29.4739 22.0677 28.8222 22.3195 28.3378 22.7767C27.8535 23.2338 27.5763 23.8588 27.5671 24.5142C27.5578 25.1696 27.8174 25.8018 28.2887 26.2715C28.76 26.7413 29.4044 27.0102 30.0801 27.0192C30.4146 27.0236 30.7468 26.9641 31.0577 26.844C31.3686 26.7239 31.652 26.5456 31.8918 26.3192C32.1316 26.0929 32.3231 25.8229 32.4553 25.5248C32.5876 25.2266 32.658 24.9062 32.6626 24.5816C32.6671 24.2571 32.6058 23.9349 32.4819 23.6334C32.3581 23.3318 32.1743 23.0569 31.9409 22.8243C31.7076 22.5917 31.4293 22.406 31.1219 22.2777C30.8145 22.1494 30.4841 22.0811 30.1496 22.0767Z" fill="#703D2A"/>
</g>
<defs>
<clipPath id="clip0_236_175">
<rect width="50" height="45" fill="white" transform="translate(15 18)"/>
</clipPath>
</defs>
</svg>
