<svg width="80" height="80" viewBox="0 0 80 80" fill="none" xmlns="http://www.w3.org/2000/svg">
<rect width="80" height="80" rx="40" fill="#F7E6CD"/>
<g clip-path="url(#clip0_44_113)">
<path d="M54.2519 27.7741C54.1019 27.6237 53.8985 27.5392 53.6865 27.5392C53.4744 27.5392 53.271 27.6237 53.1211 27.7741C52.9711 27.9245 52.8869 28.1285 52.8869 28.3412C52.8869 28.5539 52.9711 28.7578 53.1211 28.9082L55.964 31.7608C56.0394 31.8349 56.1287 31.8933 56.2267 31.9326C56.3248 31.9719 56.4296 31.9914 56.5351 31.9899H56.5546C56.6625 31.9871 56.7687 31.9624 56.8669 31.9173C56.965 31.8722 57.0531 31.8077 57.1257 31.7276L62.5134 25.7899C62.5874 25.7127 62.6452 25.6213 62.6834 25.5213C62.7216 25.4212 62.7395 25.3146 62.7359 25.2075C62.7323 25.1004 62.7074 24.9952 62.6625 24.8979C62.6177 24.8007 62.5539 24.7135 62.475 24.6414C62.396 24.5693 62.3034 24.5138 62.2027 24.4781C62.1019 24.4425 61.9951 24.4275 61.8885 24.434C61.7819 24.4404 61.6777 24.4683 61.582 24.5158C61.4862 24.5633 61.401 24.6296 61.3313 24.7108L56.5077 30.0263L54.2519 27.7741Z" fill="#703D2A"/>
<path d="M67 28.2244C67 26.8395 66.6886 25.4724 66.0888 24.225C65.4889 22.9775 64.6163 21.8819 63.5357 21.0197C63.3681 20.9034 63.1625 20.8557 62.961 20.8864C62.7595 20.917 62.5773 21.0237 62.4516 21.1846C62.3258 21.3455 62.2661 21.5485 62.2846 21.752C62.3032 21.9556 62.3985 22.1444 62.5511 22.2799C63.9846 23.4378 64.9472 25.0808 65.2583 26.9003C65.5693 28.7199 65.2074 30.5907 64.2404 32.1615C63.2735 33.7322 61.768 34.8949 60.0068 35.4312C58.2456 35.9674 56.3497 35.8403 54.6754 35.0737C53.001 34.3071 51.6632 32.9538 50.9133 31.2679C50.1634 29.582 50.053 27.6795 50.6027 25.9177C51.1525 24.1559 52.3246 22.6561 53.899 21.6998C55.4734 20.7435 57.3417 20.3965 59.153 20.7241C59.3576 20.7546 59.566 20.7045 59.7345 20.5841C59.9029 20.4638 60.0183 20.2827 60.0565 20.0788C60.0946 19.8749 60.0525 19.6642 59.939 19.4908C59.8255 19.3174 59.6494 19.1949 59.4477 19.1489C58.9047 19.0493 58.3538 18.9994 57.8018 19C55.7112 19.0028 53.6837 19.7188 52.0526 21.0305C50.4214 22.3421 49.2837 24.1712 48.8264 26.2173H30.1399C28.7361 26.2173 28.2176 26.7362 28.2164 28.143C28.2164 31.5157 28.2164 34.8879 28.2164 38.2598C28.2164 38.521 28.2096 38.8109 28.1022 39.0365C27.6073 40.0645 27.0902 41.0814 26.5511 42.0873C26.4174 42.3547 26.2322 42.593 26.0061 42.7882C25.7801 42.9835 25.5177 43.1319 25.2341 43.2248C25.1964 43.0725 25.1656 42.9453 25.1348 42.817C24.8698 41.7035 24.0817 41.0539 22.936 41.0379C21.8532 41.0226 20.77 41.0226 19.6865 41.0379C18.5819 41.0574 17.779 41.7367 17.5437 42.8113C17.5083 42.974 17.4706 43.1355 17.4295 43.3245C16.7247 43.3245 16.0417 43.3085 15.3586 43.3245C14.2244 43.3566 13.3187 44.0497 13.1016 45.1391C13.0058 45.7014 12.9881 46.2743 13.0491 46.8415C13.0845 47.2849 13.4089 47.5552 13.8738 47.5495C14.3638 47.5495 14.6516 47.2551 14.7087 46.7796C14.7498 46.436 14.7213 46.0923 14.7293 45.7486C14.7396 45.3499 14.9349 45.0693 15.3358 45.0521C16.0314 45.0212 16.7281 45.0429 17.434 45.0429V56.9468C16.7715 56.9468 16.1479 56.956 15.5243 56.9468C14.9429 56.9354 14.7384 56.7315 14.7247 56.1449C14.7144 55.4209 14.7247 54.6969 14.7247 53.9683C14.7247 52.7299 14.7567 51.4903 14.6996 50.2542C14.6859 49.9529 14.4437 49.5749 14.1902 49.4019C14.0108 49.2793 13.5414 49.3412 13.3746 49.5016C13.1542 49.7499 13.0305 50.0696 13.0263 50.402C12.9954 52.2693 13.0091 54.1367 13.0114 56.004C13.0114 57.7224 13.9252 58.6492 15.6385 58.6641C16.2381 58.6641 16.8378 58.6641 17.4157 58.6641C17.916 60.6632 18.534 61.024 20.7384 60.9633C21.3244 60.9473 21.9115 60.9633 22.4974 60.9816C23.6944 61.0194 24.6265 60.6231 25.0617 59.5405H28.8903L61.2661 59.5313C62.7247 59.5313 63.2867 58.9585 63.2867 57.4864C63.2867 55.9513 63.2867 54.4154 63.2867 52.8788V41.692C63.2867 39.6681 63.2867 37.6442 63.2867 35.6204C64.4378 34.7634 65.3731 33.6483 66.0179 32.3641C66.6627 31.0799 66.999 29.6622 67 28.2244ZM22.7327 59.2598C21.8018 59.2426 20.8721 59.2598 19.9412 59.2529C19.3141 59.2529 19.1827 59.1132 19.1816 58.467C19.177 55.991 19.177 53.5154 19.1816 51.0401C19.1862 48.5649 19.1862 46.0896 19.1816 43.6143C19.1816 42.8789 19.3107 42.7529 20.044 42.7517C20.936 42.7517 21.8281 42.7643 22.7201 42.7517C23.2478 42.7403 23.4843 42.9545 23.4843 43.4918C23.4774 48.5003 23.4774 53.5085 23.4843 58.5163C23.4843 59.0456 23.2638 59.2701 22.7327 59.2598ZM39.1999 27.9849H45.6682V34.6661L43.5334 32.9981C42.5922 32.2649 42.277 32.2661 41.3324 32.9981C40.6745 33.5113 40.0158 34.0245 39.3564 34.5378C39.3066 34.5633 39.2546 34.584 39.201 34.5996L39.1999 27.9849ZM39.2467 57.7453C39.0274 57.8041 38.8008 57.8303 38.5739 57.8232C36.5028 57.8293 34.4323 57.8293 32.3626 57.8232V57.7568C30.2359 57.7568 28.1091 57.7728 25.9823 57.7488C25.201 57.7407 25.1953 57.6926 25.1953 56.9308C25.1953 53.1595 25.201 49.387 25.185 45.6157C25.185 45.2136 25.2867 45.02 25.6876 44.8963C26.9532 44.5079 27.731 43.5685 28.3147 42.431C28.8858 41.3128 29.4477 40.1913 30.02 39.0755C30.2735 38.5794 30.4894 38.5325 30.8801 38.9197C31.4203 39.4547 31.6533 40.1065 31.3883 40.8443C31.2128 41.3469 30.9858 41.8298 30.711 42.2855C29.7321 43.8675 30.6939 45.2503 32.4483 45.1964C35.7127 45.0956 38.9817 45.1632 42.2496 45.1689C42.514 45.1601 42.7782 45.1918 43.0331 45.2629C43.4546 45.3992 43.6956 45.7211 43.6602 46.1793C43.6581 46.3828 43.582 46.5785 43.4461 46.7296C43.3102 46.8807 43.1239 46.9767 42.9223 46.9996C42.6976 47.0353 42.4702 47.0522 42.2427 47.05C40.3432 47.05 38.4437 47.05 36.5442 47.05C36.3355 47.0454 36.1267 47.0557 35.9195 47.0809C35.7267 47.0944 35.5464 47.1815 35.4157 47.3243C35.285 47.4671 35.2139 47.6547 35.217 47.8485C35.1907 48.3067 35.4089 48.6195 35.8669 48.7157C36.0905 48.758 36.3179 48.7768 36.5454 48.7718C39.6031 48.7718 42.6608 48.765 45.7196 48.7879C46.0542 48.7879 46.47 48.8841 46.6996 49.096C46.904 49.2851 47.0205 49.7273 46.9543 50.0034C46.896 50.2428 46.55 50.4478 46.2884 50.5899C46.1239 50.6793 45.8806 50.6323 45.6716 50.6323C42.5945 50.6323 39.5174 50.6323 36.4403 50.6323C36.2697 50.6258 36.0988 50.6296 35.9286 50.6437C35.4534 50.7056 35.1656 50.976 35.1291 51.4628C35.0959 51.9211 35.4306 52.2785 35.9286 52.3404C36.0992 52.3541 36.2704 52.3576 36.4414 52.3507C39.0244 52.3507 41.6076 52.3507 44.1913 52.3507C44.3823 52.3376 44.5742 52.3487 44.7624 52.3839C45.2193 52.4985 45.4809 52.833 45.4706 53.3004C45.4781 53.5137 45.4053 53.722 45.2667 53.8839C45.128 54.0459 44.9338 54.1496 44.7224 54.1745C44.4954 54.2056 44.266 54.2163 44.0371 54.2066C41.2638 54.2066 38.4906 54.2066 35.7173 54.2066C35.5463 54.201 35.3751 54.2041 35.2044 54.2157C34.6174 54.2753 34.2907 54.6133 34.3147 55.1208C34.3375 55.6042 34.6573 55.9112 35.2387 55.9227C36.245 55.9422 37.2513 55.9227 38.2587 55.933C38.542 55.933 38.8298 55.9651 39.1096 55.988C39.5882 56.0258 39.8304 56.3431 39.8806 56.7681C39.9201 56.9812 39.8763 57.2013 39.7583 57.3829C39.6402 57.5644 39.457 57.6934 39.2467 57.743V57.7453ZM61.5414 57.7957H56.6528V57.145C56.6528 52.0204 56.6528 46.8961 56.6528 41.7722C56.6616 41.5442 56.6443 41.3159 56.6014 41.0917C56.4986 40.6438 56.1947 40.4044 55.7333 40.4388C55.2718 40.4731 55.0057 40.7366 54.9543 41.196C54.9375 41.4048 54.9322 41.6144 54.9383 41.8238V57.7923H41.5562V55.9318C42.3775 55.9318 43.2239 55.9444 44.0691 55.9318C44.4826 55.9227 44.9155 55.9192 45.3061 55.8012C46.791 55.3522 47.4089 54.0439 47.0046 52.2499C48.3752 51.645 49.0343 50.5647 48.6402 49.1006C48.2016 47.4704 46.9326 46.924 45.2296 47.0741C45.498 46.1152 45.4066 45.3041 44.8869 44.5847C44.2735 43.7449 43.402 43.4482 42.3992 43.4505C39.1881 43.4551 35.9777 43.4551 32.7681 43.4505H32.0828C32.3741 42.8594 32.6379 42.3599 32.8709 41.8467C33.6259 40.1741 33.1188 38.3159 31.5791 37.3388C31.1382 37.0581 30.5717 36.979 29.9903 36.7831V27.9792H37.4397V28.5852C37.4397 30.8146 37.4397 33.0435 37.4397 35.2721C37.435 35.5191 37.4557 35.766 37.5014 36.0087C37.6773 36.853 38.5397 37.2551 39.2444 36.7625C40.1936 36.0992 41.1005 35.3741 42.0006 34.6443C42.3227 34.3831 42.5351 34.3591 42.8675 34.6443C43.667 35.3168 44.5088 35.94 45.3301 36.5918C45.7596 36.9286 46.221 37.1165 46.7498 36.8576C47.3004 36.5872 47.4352 36.0889 47.4352 35.5207C47.4352 33.2341 47.4352 30.9478 47.4352 28.662V27.9964C47.8288 27.9582 48.2248 27.9505 48.6196 27.9735C48.6196 28.0594 48.6128 28.1453 48.6128 28.2324C48.6138 29.7686 48.9975 31.2802 49.729 32.6299C50.4605 33.9795 51.5166 35.1245 52.8014 35.9608C54.0862 36.7972 55.5589 37.2983 57.0859 37.4187C58.6128 37.5391 60.1455 37.2749 61.5448 36.6502L61.5414 57.7957Z" fill="#703D2A"/>
</g>
<defs>
<clipPath id="clip0_44_113">
<rect width="54" height="42" fill="white" transform="translate(13 19)"/>
</clipPath>
</defs>
</svg>
