<svg width="26" height="26" viewBox="0 0 26 26" fill="none" xmlns="http://www.w3.org/2000/svg">
<g id="Frame" clip-path="url(#clip0_44_177)">
<path id="Vector" d="M25.5809 0H0.447987C0.336847 0 0.230258 0.0412542 0.151669 0.114684C0.0730809 0.188115 0.0289307 0.28771 0.0289307 0.391556V1.95719C0.029256 2.06089 0.0735309 2.16025 0.152066 2.23352C0.230602 2.30679 0.337003 2.34802 0.447987 2.34817H6.13879L8.52945 4.58191C8.6079 4.65538 8.71436 4.69674 8.82543 4.69691H9.66355V15.0411C9.66593 15.1177 9.69247 15.1919 9.73985 15.2544L9.7337 15.2579L11.3693 17.5503L11.7705 19.0498C11.7932 19.1344 11.8454 19.2095 11.919 19.2632C11.9926 19.3168 12.0833 19.3459 12.1767 19.3459H12.5957V22.8687H13.4332V19.3459H13.8523C13.9456 19.3459 14.0363 19.3168 14.1099 19.2632C14.1835 19.2095 14.2358 19.1344 14.2584 19.0498L14.6596 17.5503L16.2952 15.2579L16.2891 15.2544C16.337 15.1922 16.3636 15.1178 16.3654 15.0411V4.69691H17.2035C17.2585 4.69695 17.313 4.68681 17.3638 4.66707C17.4146 4.64733 17.4607 4.61839 17.4995 4.58191L19.8901 2.34817H25.5809C25.6359 2.34824 25.6904 2.33819 25.7413 2.31857C25.7921 2.29896 25.8383 2.27017 25.8772 2.23386C25.9161 2.19754 25.947 2.15442 25.9681 2.10695C25.9891 2.05947 26 2.00858 26 1.95719V0.391556C26 0.28771 25.9558 0.188115 25.8773 0.114684C25.7987 0.0412542 25.6921 0 25.5809 0ZM17.0275 0.782536L17.865 1.56564H16.5389L15.7014 0.782536H17.0275ZM14.5144 0.782536L15.3519 1.56564H14.0264L13.1883 0.782536H14.5144ZM12.0007 0.782536L12.8388 1.56564H11.5127L10.6746 0.782536H12.0007ZM9.48755 0.782536L10.3257 1.56564H8.99896L8.16146 0.782536H9.48755ZM0.864583 1.56564V0.782536H1.94761L2.78572 1.56564H0.864583ZM3.97028 1.56564L3.13463 0.782536H4.4638L5.30129 1.56564H3.97028ZM5.64589 0.782536H6.97444L7.81194 1.56564H6.48585L5.64589 0.782536ZM13.5224 18.5634H12.5022L12.2923 17.7808H13.7329L13.5224 18.5634ZM14.0492 16.9977H11.9804L10.8629 15.4321H12.5939V16.2152H13.4314V15.4321H15.1667L14.0492 16.9977ZM15.526 5.47943H10.501V4.69691H15.5279L15.526 5.47943ZM19.052 1.56564L18.2145 0.782536H19.5431L20.3812 1.56564H19.052ZM21.5664 1.56564L20.7276 0.782536H22.0586L22.8961 1.56564H21.5664ZM25.16 1.56564H24.077L23.2395 0.782536H25.16V1.56564Z" fill="white"/>
<path id="Vector_2" d="M12.1804 23.6512H1.28855C1.12329 23.6475 0.958862 23.6743 0.804684 23.73C0.650507 23.7857 0.509606 23.8693 0.390049 23.976C0.270491 24.0827 0.174624 24.2103 0.107935 24.3517C0.0412461 24.493 0.00504491 24.6452 0.00140366 24.7997C-0.00223759 24.9541 0.0267523 25.1077 0.0867146 25.2516C0.146677 25.3956 0.236434 25.527 0.350847 25.6385C0.465261 25.75 0.602084 25.8393 0.753485 25.9013C0.904886 25.9634 1.06789 25.9969 1.23317 26H12.1804C12.2353 26.0001 12.2898 25.9901 12.3406 25.9706C12.3915 25.951 12.4377 25.9223 12.4766 25.886C12.5155 25.8498 12.5464 25.8067 12.5675 25.7592C12.5886 25.7118 12.5994 25.6609 12.5994 25.6096V24.0428C12.5995 23.9913 12.5887 23.9404 12.5677 23.8928C12.5466 23.8453 12.5158 23.8021 12.4768 23.7657C12.4379 23.7294 12.3917 23.7005 12.3408 23.6809C12.2899 23.6612 12.2354 23.6511 12.1804 23.6512ZM11.7576 25.2151H1.28855C1.17771 25.2188 1.06985 25.1812 0.988613 25.1106C0.907373 25.0401 0.859377 24.9423 0.855142 24.8388C0.850908 24.7352 0.890781 24.6343 0.966024 24.5582C1.04127 24.482 1.14574 24.4369 1.25655 24.4326H11.7576V25.2151Z" fill="white"/>
<path id="Vector_3" d="M24.7435 23.6512H13.8517C13.7405 23.6512 13.6339 23.6925 13.5554 23.7659C13.4768 23.8394 13.4326 23.9389 13.4326 24.0428V25.6084C13.4326 25.7123 13.4768 25.8119 13.5554 25.8853C13.6339 25.9587 13.7405 26 13.8517 26H24.7435C25.072 25.9932 25.3846 25.8665 25.6144 25.647C25.8442 25.4275 25.9728 25.1326 25.9728 24.8256C25.9728 24.5186 25.8442 24.2237 25.6144 24.0042C25.3846 23.7847 25.072 23.658 24.7435 23.6512ZM24.7435 25.2169H14.2726V24.4343H24.7435C24.8517 24.4382 24.9542 24.4811 25.0293 24.5541C25.1045 24.6271 25.1465 24.7244 25.1465 24.8256C25.1465 24.9269 25.1045 25.0242 25.0293 25.0971C24.9542 25.1701 24.8517 25.213 24.7435 25.2169Z" fill="white"/>
<path id="Vector_4" d="M15.6467 21.0254L13.9711 22.591L14.5637 23.1441L16.2386 21.5791L15.6467 21.0254Z" fill="white"/>
<path id="Vector_5" d="M10.3749 21.0254L9.78296 21.5791L11.458 23.1441L12.0505 22.591L10.3749 21.0254Z" fill="white"/>
<path id="Vector_6" d="M9.24446 22.0856H7.56885V22.8687H9.24446V22.0856Z" fill="white"/>
<path id="Vector_7" d="M18.46 22.0856H16.7844V22.8687H18.46V22.0856Z" fill="white"/>
</g>
<defs>
<clipPath id="clip0_44_177">
<rect width="26" height="26" fill="white"/>
</clipPath>
</defs>
</svg>
