<svg width="24" height="24" viewBox="0 0 24 24" fill="none" xmlns="http://www.w3.org/2000/svg">
<g id="ant-design:instagram-filled" clip-path="url(#clip0_44_117)">
<path id="Vector" d="M12 8.00795C9.80182 8.00795 8.00794 9.80183 8.00794 12C8.00794 14.1982 9.80182 15.9921 12 15.9921C14.1982 15.9921 15.9921 14.1982 15.9921 12C15.9921 9.80183 14.1982 8.00795 12 8.00795ZM23.9732 12C23.9732 10.3469 23.9882 8.70873 23.8953 7.0586C23.8025 5.14193 23.3652 3.44089 21.9637 2.03933C20.5591 0.634769 18.8611 0.200525 16.9444 0.107686C15.2913 0.0148474 13.6531 0.0298214 12.003 0.0298214C10.3499 0.0298214 8.71172 0.0148474 7.06159 0.107686C5.14492 0.200525 3.44388 0.637764 2.04232 2.03933C0.63776 3.44388 0.203515 5.14193 0.110677 7.0586C0.0178382 8.71172 0.0328122 10.3499 0.0328122 12C0.0328122 13.6501 0.0178382 15.2913 0.110677 16.9414C0.203515 18.8581 0.640755 20.5591 2.04232 21.9607C3.44688 23.3652 5.14492 23.7995 7.06159 23.8923C8.71471 23.9852 10.3529 23.9702 12.003 23.9702C13.6561 23.9702 15.2943 23.9852 16.9444 23.8923C18.8611 23.7995 20.5621 23.3622 21.9637 21.9607C23.3682 20.5561 23.8025 18.8581 23.8953 16.9414C23.9911 15.2913 23.9732 13.6531 23.9732 12ZM12 18.1423C8.60091 18.1423 5.85768 15.3991 5.85768 12C5.85768 8.60091 8.60091 5.85769 12 5.85769C15.3991 5.85769 18.1423 8.60091 18.1423 12C18.1423 15.3991 15.3991 18.1423 12 18.1423ZM18.3939 7.04063C17.6003 7.04063 16.9594 6.39974 16.9594 5.60612C16.9594 4.8125 17.6003 4.17162 18.3939 4.17162C19.1875 4.17162 19.8284 4.8125 19.8284 5.60612C19.8286 5.79457 19.7917 5.98122 19.7197 6.15536C19.6477 6.32951 19.542 6.48775 19.4088 6.621C19.2755 6.75425 19.1173 6.85991 18.9431 6.93191C18.769 7.00392 18.5823 7.04086 18.3939 7.04063Z" fill="white"/>
</g>
<defs>
<clipPath id="clip0_44_117">
<rect width="24" height="24" fill="white"/>
</clipPath>
</defs>
</svg>
