<svg width="606" height="113" viewBox="0 0 606 113" fill="none" xmlns="http://www.w3.org/2000/svg">
<path fill-rule="evenodd" clip-rule="evenodd" d="M21.3093 20.6975L21.3128 20.6964C22.6025 20.2884 23.8778 19.8849 25.1377 19.5086C24.4626 20.8847 23.7801 22.1628 23.1282 23.3838C21.7646 25.9375 20.5346 28.241 19.7846 30.6678C14.7835 46.5591 9.93299 62.5005 5.08387 78.4374L5.08295 78.4403L5.08204 78.4433L5.08112 78.4462L5.08021 78.4491L5.07929 78.4521L5.07572 78.4638C3.80741 82.6322 2.53919 86.8002 1.26838 90.967C-1.36822 99.6253 -0.189721 101.767 8.79871 103.76C19.8439 106.148 31.1856 106.87 42.4454 105.902C79.3679 103.123 106.683 72.7935 104.685 36.0182C103.737 18.0838 93.5497 5.86853 76.0422 2.14216C57.4861 -1.82332 39.0598 0.308833 20.6834 3.8459C13.7423 5.18101 8.09962 8.32946 4.93369 14.6663C3.97532 16.5854 3.62144 18.8037 3.26743 21.0229L3.26716 21.0243L3.26688 21.0258L3.26661 21.0272L3.26633 21.0287L3.26606 21.0302L3.26578 21.0316C3.10755 22.024 2.94932 23.0165 2.73649 23.9823C3.66511 23.9329 4.6023 23.9217 5.54014 23.9106H5.54188C7.62943 23.8858 9.71995 23.861 11.7249 23.4143C14.9941 22.6957 18.1935 21.6834 21.3088 20.6977L21.3093 20.6975ZM57.9155 88.9943C49.5962 95.3311 40.0784 95.0919 29.9515 94.7133C35.6158 84.8022 38.1619 74.2506 40.6815 63.8087L40.6816 63.808C41.8803 58.8404 43.073 53.8975 44.5926 49.0604C46.793 42.0802 48.675 34.999 50.5705 27.8668L50.5713 27.8638C51.4028 24.735 52.2369 21.5965 53.1017 18.4524C61.8804 18.9706 67.3833 23.9523 71.0786 30.9268C81.2355 50.1365 75.1733 75.9122 57.9155 88.9943ZM276.334 80.7644C269.713 77.2373 263.591 73.0526 259.596 65.8191C260.506 65.4391 261.383 65.0892 262.233 64.7505L262.237 64.749C264.594 63.8092 266.736 62.9552 268.754 61.7838C289.737 50.8638 292.543 25.8055 273.428 13.7198C254.313 1.634 233.619 2.92926 212.946 9.10664C210.569 9.81405 208.442 13.2614 207.353 15.9117C206.165 18.7812 207.593 21.1625 211.348 20.8935C213.318 20.7489 215.289 20.6254 217.229 20.5037L217.237 20.5033L217.243 20.5029L218.17 20.4448C218.587 20.4185 219.003 20.3921 219.418 20.3655C217.635 25.2974 215.838 30.1936 214.049 35.0703C209.862 46.4791 205.714 57.7816 201.88 69.1868C198.72 78.3899 196.237 87.8103 194.45 97.3735C193.181 104.697 197.026 106.928 204.437 105.095C216.761 101.997 222.633 93.3184 226.009 82.0695L243.527 24.1416C243.999 22.5931 244.499 21.0492 244.995 19.5159L245.224 18.8068C245.386 18.3087 245.546 17.8119 245.704 17.3166C255.631 20.0067 259.057 23.8726 259.376 32.3217C259.886 45.633 252.595 56.7523 239.612 62.0927C236.376 63.4278 234.328 65.1117 235.437 68.6985C239.192 80.874 244.096 92.8302 254.243 100.801C267.546 111.352 279.211 110.924 286.202 92.4216C288.039 87.7687 287.79 84.7298 282.207 83.4545C280.138 82.8224 278.163 81.9177 276.334 80.7644ZM371.022 57.3899C376.894 57.058 376.872 60.1825 376.846 63.9643V63.9651V63.9658C376.843 64.3841 376.84 64.8105 376.845 65.2412C376.918 72.3018 377.295 79.3582 377.672 86.4131L377.673 86.4161C377.867 90.0423 378.061 93.6681 378.213 97.2939C378.213 98.4496 378.213 100.034 377.484 100.721C372.401 105.613 366.378 109.15 359.178 107.516C357.581 107.046 356.101 106.248 354.833 105.172C353.566 104.095 352.538 102.766 351.817 101.269C350.446 97.7487 349.892 93.917 349.391 90.4563V90.4557L349.391 90.452L349.39 90.4482C349.191 89.0737 349.001 87.7577 348.771 86.5432C346.571 88.3372 344.344 90.2288 342.075 92.1562L342.072 92.159C336.668 96.7494 331.025 101.542 324.942 105.703C320.941 108.482 316.029 109.636 311.206 108.931C306.382 108.226 302.009 105.714 298.975 101.907C296.881 99.4257 295.443 96.4613 294.79 93.2838C294.138 90.1062 294.292 86.8163 295.24 83.7136C302.031 58.9642 317.911 42.7635 342.25 34.8923C349.328 32.7425 356.933 33.0944 363.782 35.8887C373.13 39.4257 375.766 45.5732 371.981 54.7397C371.726 55.2707 371.545 55.8176 371.311 56.5277L371.31 56.5316L371.309 56.5328L371.245 56.7259C371.212 56.8259 371.178 56.9291 371.142 57.0359C371.104 57.1497 371.064 57.2676 371.022 57.3899ZM355.233 67.7221L340.682 69.117C341.336 67.9156 341.971 66.8874 342.541 65.9629C343.639 64.1811 344.501 62.7845 344.816 61.2757C344.88 60.9688 344.944 60.6607 345.009 60.3514C345.869 56.2434 346.768 51.9474 346.164 47.9445C345.485 43.2118 342.559 42.8133 339.303 46.2707C337.318 48.2733 335.467 50.4033 333.76 52.6473L333.543 52.95C328.089 60.5539 322.545 68.2826 323.344 78.2336C323.495 79.7391 323.945 81.1994 324.667 82.5301C325.389 83.8607 326.368 85.0352 327.548 85.9853C329.007 86.9817 333.011 85.7163 334.969 84.2616C339.559 80.831 343.963 77.1378 348.758 73.1177C350.828 71.3818 352.971 69.585 355.233 67.7221ZM604.492 64.3743C604.442 60.1 604.022 57.2404 598.609 57.3999C603.983 44.8159 600.517 37.1939 587.823 34.9521C581.192 33.8263 573.522 33.6469 567.31 35.819C544.899 43.6702 529.958 59.4125 523.366 82.229C520.85 90.9571 522.288 99.5655 530.427 105.245C538.187 110.665 546.467 110.117 554.167 104.946C558.773 101.732 563.163 98.2203 567.31 94.4343C569.59 92.4259 571.723 90.231 574.077 87.8082L574.078 87.8071C575.251 86.6005 576.478 85.3373 577.806 84.0125C577.806 85.6015 577.773 87.059 577.741 88.4296V88.4306V88.4319V88.433V88.434V88.4364C577.683 90.9477 577.632 93.1676 577.806 95.3708C578.535 105.035 584.627 109.908 593.516 107.417C596.98 106.474 600.17 104.372 603.277 102.324C603.781 101.993 604.282 101.663 604.782 101.339C605.68 100.761 606.06 98.7585 606 97.4333C605.833 93.8269 605.628 90.2204 605.423 86.6139C605.001 79.2007 604.579 71.7875 604.492 64.3743ZM569.925 66.5691L569.922 66.5747C569.489 67.3556 569.002 68.235 568.438 69.2565L581.082 67.9114L581.791 68.848C579.777 70.4657 577.777 72.1065 575.776 73.7476L575.774 73.7497L575.771 73.7518L575.768 73.7539L575.767 73.7547C571.043 77.6296 566.316 81.5065 561.407 85.0885C556.723 88.5359 552.269 86.5432 551.42 80.6249C550.877 76.884 551.153 73.0701 552.229 69.4459C555.185 60.12 560.988 52.458 567.979 45.6529C570.855 42.8233 572.623 43.9093 573.851 46.998C575.979 52.2588 574.89 57.3601 572.303 62.2223C571.622 63.5051 570.917 64.7783 569.925 66.5691ZM419.151 89.6618C421.252 89.2335 423.359 88.8245 425.465 88.4156C430.464 87.445 435.46 86.4747 440.393 85.248C445.796 83.8929 447.075 84.5704 446.465 90.1699C445.367 100.133 439.474 106.66 430.226 109.579C416.324 113.983 402.602 111.91 389.579 105.932C383.127 102.943 382.278 98.1905 387.072 92.7504C392.051 87.0833 397.172 81.5451 402.293 76.0069L402.294 76.0055L402.294 76.005L402.295 76.0045L402.295 76.0041C406.285 71.6896 410.274 67.3751 414.197 62.9994C416.923 59.9465 419.472 56.7266 422.242 53.2288L422.243 53.2276C423.531 51.6002 424.868 49.9127 426.291 48.1538C424.815 48.5231 423.374 48.8841 421.962 49.238C420.471 49.6116 419.013 49.9774 417.58 50.3367C411.801 51.7861 406.442 53.1302 401.074 54.4607C399.979 54.8487 398.819 55.0213 397.658 54.9688C396.976 54.8546 396.189 54.7629 395.38 54.6687C392.873 54.3768 390.161 54.0609 389.738 52.9761C388.74 50.3657 389.399 46.4102 390.737 43.7499C394.312 36.895 399.805 32.6306 408.314 33.1686C414.572 33.5681 420.829 33.7565 427.072 33.9444H427.073C430.794 34.0563 434.509 34.1681 438.216 34.3244C439.877 34.4456 441.522 34.7258 443.13 35.1613C448.293 36.4068 449.821 38.8776 447.125 43.3214C441.25 52.9721 435.136 62.4695 429.018 71.9724C427.335 74.586 425.653 77.2001 423.974 79.8178C422.74 81.7484 421.418 83.6201 420.093 85.4948C419.531 86.2905 418.968 87.0867 418.411 87.8882L419.151 89.6618ZM487.794 50.1004C490.384 49.4207 493.051 48.721 495.832 48.0142C493.69 50.533 491.641 52.9753 489.641 55.3582L489.633 55.3676L489.633 55.368L489.629 55.3731C485.59 60.1865 481.754 64.7577 477.775 69.2265C474.451 72.9474 471.036 76.5841 467.621 80.2203C463.895 84.1885 460.169 88.1562 456.562 92.2324C451.199 98.3101 451.689 102.564 458.989 105.982C472.282 112.139 486.354 114.312 500.506 109.15C508.935 106.072 514.488 99.8943 515.486 90.4189C516.076 84.8693 514.857 84.0523 509.494 85.3675C504.702 86.5559 499.819 87.4791 494.958 88.3982C492.768 88.8122 490.582 89.2254 488.411 89.6617L487.672 87.9879L490.788 83.1655C493.226 79.3995 495.68 75.6443 498.133 71.8897L498.148 71.8665C504.193 62.6158 510.235 53.3679 516.036 43.969C519.252 38.7481 517.724 35.6993 511.601 35.1513C504.325 34.4749 497.022 34.145 489.718 33.815H489.717C485.402 33.62 481.086 33.425 476.776 33.1586C470.285 32.7601 465.551 35.6694 461.856 40.5217C459.119 44.1185 456.183 48.373 458.75 52.7569C460.99 56.583 465.086 55.6127 468.655 54.7673C469.175 54.644 469.684 54.5234 470.175 54.4207C475.948 53.2086 481.656 51.7108 487.794 50.1004ZM142.507 51.0831C141.508 68.5591 136.894 85.228 130.622 101.479C129.354 104.776 126.897 108.214 123.032 107.517C119.584 106.89 116.453 105.112 114.153 102.475C111.908 99.4134 110.628 95.7539 110.478 91.9635C110.064 74.3075 114.458 56.87 123.191 41.5081C125.578 37.1939 128.824 33.4377 134.737 35.0319C140.379 36.5463 141.438 41.4085 142.457 46.1312C142.643 47.7758 142.66 49.4351 142.507 51.0831ZM135.825 29.1034C142.866 24.8589 144.344 17.7849 145.972 9.73435C145.499 8.96823 145.063 8.05128 144.627 7.13543C143.646 5.07363 142.668 3.01741 141.278 2.70005C138.222 1.98268 133.558 2.70005 131.351 4.69276C126.158 9.40551 124.11 16.091 124.36 23.1253C124.6 29.9204 129.913 32.6703 135.825 29.1034Z" fill="white"/>
</svg>
