<svg width="24" height="24" viewBox="0 0 24 24" fill="none" xmlns="http://www.w3.org/2000/svg">
<g id="dashicons:whatsapp" clip-path="url(#clip0_44_233)">
<path id="Vector" d="M22.2665 5.54974C18.6665 -0.000305535 11.3164 -1.65032 5.61639 1.79971C0.0663506 5.24973 -1.73366 12.7498 1.86636 18.2998L2.16637 18.7498L0.966358 23.2499L5.46639 22.0499L5.9164 22.3499C7.86641 23.3999 9.96643 23.9999 12.0664 23.9999C14.3165 23.9999 16.5665 23.3999 18.5165 22.1999C24.0665 18.5998 25.7165 11.2498 22.2665 5.54974ZM19.1165 17.0998C18.5165 17.9998 17.7665 18.5998 16.7165 18.7498C16.1165 18.7498 15.3665 19.0498 12.3664 17.8498C9.81643 16.6498 7.71641 14.6998 6.2164 12.4498C5.31639 11.3998 4.86639 10.0498 4.71639 8.69976C4.71639 7.49975 5.16639 6.44974 5.9164 5.69974C6.2164 5.39974 6.5164 5.24973 6.8164 5.24973H7.56641C7.86641 5.24973 8.16641 5.24973 8.31641 5.84974C8.61642 6.59975 9.36642 8.39976 9.36642 8.54976C9.51642 8.69976 9.51642 8.99976 9.36642 9.14977C9.51642 9.44977 9.36642 9.74977 9.21642 9.89977C9.06642 10.0498 8.91642 10.3498 8.76642 10.4998C8.46642 10.6498 8.31641 10.9498 8.46641 11.2498C9.06642 12.1498 9.81643 13.0498 10.5664 13.7998C11.4664 14.5498 12.3664 15.1498 13.4165 15.5998C13.7165 15.7498 14.0165 15.7498 14.1665 15.4498C14.3165 15.1498 15.0665 14.3998 15.3665 14.0998C15.6665 13.7998 15.8165 13.7998 16.1165 13.9498L18.5165 15.1498C18.8165 15.2998 19.1165 15.4498 19.2665 15.5998C19.4165 16.0498 19.4165 16.6498 19.1165 17.0998Z" fill="white"/>
</g>
<defs>
<clipPath id="clip0_44_233">
<rect width="24" height="24" fill="white"/>
</clipPath>
</defs>
</svg>
