<svg width="31" height="31" viewBox="0 0 31 31" fill="none" xmlns="http://www.w3.org/2000/svg">
<g id="Frame" clip-path="url(#clip0_44_187)">
<path id="Vector" d="M15.4033 10.7644L11.7175 12.8279L15.4033 14.8914L19.0891 12.8279L15.4033 10.7644Z" fill="white"/>
<path id="Vector_2" d="M15.9348 20.4788L19.6518 18.3999V13.7373L15.9348 15.8184V20.4788Z" fill="white"/>
<path id="Vector_3" d="M11.1555 18.3999L14.8726 20.481V15.8184L11.1555 13.7373V18.3999Z" fill="white"/>
<path id="Vector_4" d="M24.3774 16.3152C24.3895 16.1252 24.3956 15.9324 24.3956 15.737C24.3962 15.0629 24.323 14.3908 24.1775 13.7329C24.1482 13.6019 24.1691 13.4646 24.2358 13.3484C24.3025 13.2321 24.4101 13.1455 24.5374 13.1056C24.4405 12.7657 24.3247 12.4315 24.1905 12.1047C24.0657 12.1513 23.9279 12.149 23.8047 12.0981C23.6814 12.0472 23.5817 11.9514 23.5252 11.8299C23.2364 11.2216 22.8819 10.6473 22.468 10.1174C22.3868 10.013 22.3468 9.8821 22.3556 9.74979C22.3645 9.61748 22.4216 9.49315 22.516 9.40074C22.2831 9.13431 22.0358 8.88111 21.7751 8.64231C21.6819 8.7363 21.5573 8.79202 21.4256 8.79866C21.2939 8.80529 21.1645 8.76236 21.0625 8.67821C20.5437 8.2526 19.9797 7.88642 19.3806 7.58639C19.2629 7.52737 19.171 7.42646 19.1228 7.30316C19.0746 7.17987 19.0735 7.04293 19.1196 6.91883C18.7944 6.77802 18.4616 6.6557 18.1227 6.55245C18.0869 6.6575 18.0195 6.74867 17.9298 6.81329C17.8401 6.87791 17.7327 6.91275 17.6225 6.91296C17.5804 6.91283 17.5384 6.90792 17.4974 6.89831C16.8468 6.73998 16.1808 6.65494 15.5116 6.64477C15.3805 6.63961 15.2559 6.58569 15.1619 6.4934C15.0679 6.40111 15.0112 6.27699 15.0027 6.14502C14.6439 6.15785 14.286 6.19087 13.9309 6.24394C13.9478 6.37725 13.9142 6.51208 13.8369 6.62155C13.7595 6.73101 13.6441 6.80707 13.5135 6.83456C12.8589 6.97204 12.2216 7.18292 11.6136 7.46328C11.5451 7.495 11.4707 7.5115 11.3954 7.51164H11.3911C11.2956 7.51162 11.202 7.48568 11.12 7.43655C11.038 7.38742 10.9706 7.31691 10.925 7.23245C10.6101 7.39823 10.3047 7.58172 10.0103 7.78203C10.0852 7.89394 10.1153 8.03028 10.0945 8.16364C10.0737 8.29701 10.0036 8.4175 9.89829 8.50089C9.3663 8.91032 8.88035 9.37719 8.44914 9.89316C8.36098 9.99908 8.23551 10.0664 8.09909 10.081C7.96268 10.0957 7.82595 10.0564 7.71766 9.97156C7.50485 10.2552 7.30774 10.5505 7.12724 10.856C7.24738 10.9238 7.33672 11.0359 7.37646 11.1688C7.4162 11.3017 7.40323 11.4449 7.34028 11.5683C7.03333 12.1676 6.7936 12.7994 6.62553 13.4522C6.5901 13.5891 6.5024 13.7063 6.38157 13.7782C6.26075 13.8501 6.1166 13.871 5.98057 13.8362C5.90972 14.1845 5.8585 14.5365 5.82715 14.8907H5.84024C5.90991 14.8942 5.9782 14.9116 6.04121 14.9418C6.10421 14.972 6.1607 15.0144 6.20743 15.0666C6.25416 15.1188 6.29022 15.1797 6.31356 15.246C6.33689 15.3123 6.34703 15.3825 6.34341 15.4527C6.33832 15.5487 6.33832 15.6447 6.33832 15.7414C6.33844 16.319 6.39273 16.8954 6.50046 17.4627C6.5213 17.5967 6.49084 17.7337 6.41524 17.846C6.33965 17.9582 6.22456 18.0373 6.09328 18.0672L6.06419 18.0731C6.14902 18.4207 6.25317 18.7632 6.37613 19.099L6.40375 19.0865C6.5347 19.0341 6.68094 19.0363 6.81033 19.0924C6.93972 19.1486 7.04168 19.2543 7.09379 19.3862C7.36273 20.0038 7.69877 20.5895 8.09576 21.1324C8.13726 21.1889 8.16729 21.2531 8.18412 21.3213C8.20096 21.3896 8.20426 21.4604 8.19386 21.5299C8.18346 21.5994 8.15955 21.6662 8.1235 21.7264C8.08745 21.7865 8.03997 21.839 7.98379 21.8806C7.97959 21.8838 7.97522 21.8867 7.9707 21.8894C8.19158 22.1592 8.42678 22.4168 8.67528 22.661C8.68473 22.6493 8.69418 22.6383 8.70436 22.6273C8.80215 22.5253 8.93613 22.4666 9.07684 22.4641C9.21756 22.4617 9.35349 22.5156 9.45475 22.6141C9.96056 23.0557 10.5131 23.4398 11.1024 23.7594L11.114 23.766C11.1751 23.8 11.2288 23.8457 11.2723 23.9007C11.3157 23.9556 11.348 24.0186 11.3673 24.0862C11.3865 24.1537 11.3924 24.2244 11.3845 24.2942C11.3766 24.364 11.3551 24.4315 11.3213 24.4929C11.3193 24.4968 11.3172 24.5004 11.3147 24.5039C11.6365 24.6552 11.9664 24.7883 12.3029 24.9026C12.3029 24.8967 12.3029 24.8908 12.3065 24.885C12.325 24.8171 12.3566 24.7535 12.3996 24.6979C12.4425 24.6423 12.4959 24.5959 12.5567 24.5611C12.6175 24.5264 12.6845 24.5041 12.7539 24.4956C12.8232 24.487 12.8936 24.4923 12.9609 24.5113C13.6061 24.69 14.2689 24.7962 14.9372 24.8278C15.0724 24.8349 15.1998 24.8938 15.2933 24.9924C15.3869 25.091 15.4395 25.2219 15.4404 25.3583C15.4404 25.373 15.4404 25.3877 15.4404 25.4023C15.7965 25.3976 16.1521 25.3731 16.5056 25.329C16.5056 25.3246 16.5056 25.321 16.5056 25.3166C16.4815 25.1769 16.5134 25.0332 16.5942 24.9172C16.675 24.8011 16.7982 24.7221 16.9368 24.6974C17.5969 24.5809 18.242 24.3904 18.86 24.1295C18.9874 24.0791 19.1292 24.0801 19.2558 24.1324C19.3825 24.1847 19.4842 24.2842 19.5399 24.4101L19.5443 24.4219C19.8668 24.2627 20.1802 24.0853 20.483 23.8906C20.4025 23.7751 20.3705 23.6323 20.3939 23.4932C20.4173 23.354 20.4943 23.2299 20.608 23.1476C21.1528 22.7555 21.6529 22.3041 22.0993 21.8015C22.1915 21.6977 22.3201 21.6342 22.4579 21.6245C22.5957 21.6148 22.7318 21.6596 22.8374 21.7494C23.0577 21.4698 23.2626 21.1783 23.4511 20.876C23.3339 20.8042 23.2488 20.6894 23.2137 20.5558C23.1786 20.4223 23.1962 20.2802 23.2627 20.1593C23.588 19.5699 23.8472 18.9459 24.0357 18.2988C24.0746 18.1681 24.1617 18.0574 24.279 17.9893C24.3964 17.9212 24.5351 17.9008 24.6668 17.9324C24.7458 17.5855 24.8055 17.2345 24.8457 16.8809C24.7105 16.8652 24.5865 16.7977 24.4993 16.6924C24.4121 16.5871 24.3685 16.452 24.3774 16.3152ZM20.7113 18.7143C20.7112 18.8097 20.6858 18.9034 20.6378 18.9856C20.5897 19.0678 20.5207 19.1355 20.4379 19.1818L15.6585 21.8579C15.5797 21.9018 15.4912 21.9249 15.4011 21.9249C15.3111 21.9249 15.2225 21.9018 15.1437 21.8579L10.3644 19.1818C10.2816 19.1355 10.2126 19.0678 10.1645 18.9856C10.1164 18.9034 10.091 18.8097 10.091 18.7143V12.8279C10.0909 12.7325 10.1162 12.6387 10.1643 12.5565C10.2124 12.4743 10.2815 12.4066 10.3644 12.3604L15.1423 9.68432C15.2212 9.64031 15.3099 9.61722 15.4 9.61722C15.4902 9.61722 15.5789 9.64031 15.6578 9.68432L20.4379 12.3604C20.5208 12.4066 20.5899 12.4743 20.638 12.5565C20.6861 12.6387 20.7114 12.7325 20.7113 12.8279V18.7143Z" fill="white"/>
<path id="Vector_5" d="M30.4692 3.72685L30.8444 3.34873C30.8938 3.2991 30.9331 3.24012 30.9598 3.17517C30.9866 3.11022 31.0004 3.04059 31.0004 2.97026C31.0004 2.89993 30.9866 2.83029 30.9598 2.76534C30.9331 2.70039 30.8938 2.64141 30.8444 2.59178C30.7951 2.54195 30.7366 2.50241 30.6722 2.47543C30.6077 2.44845 30.5386 2.43457 30.4688 2.43457C30.3991 2.43457 30.33 2.44845 30.2655 2.47543C30.2011 2.50241 30.1425 2.54195 30.0933 2.59178L29.7166 2.97063L29.3414 2.59251C29.2922 2.54268 29.2337 2.50314 29.1692 2.47616C29.1048 2.44919 29.0357 2.4353 28.9659 2.4353C28.8961 2.4353 28.827 2.44919 28.7626 2.47616C28.6981 2.50314 28.6396 2.54268 28.5903 2.59251C28.4908 2.69294 28.4349 2.82907 28.4349 2.97099C28.4349 3.11292 28.4908 3.24903 28.5903 3.34946L28.9662 3.72758L28.5903 4.10569C28.4908 4.20612 28.4349 4.34224 28.4349 4.48416C28.4349 4.62609 28.4908 4.76221 28.5903 4.86264C28.69 4.96292 28.8251 5.01925 28.9659 5.01925C29.1067 5.01925 29.2418 4.96292 29.3414 4.86264L29.7166 4.48453L30.0918 4.86264C30.1915 4.96292 30.3266 5.01925 30.4674 5.01925C30.6082 5.01925 30.7433 4.96292 30.8429 4.86264C30.8924 4.81301 30.9316 4.75403 30.9584 4.68909C30.9852 4.62414 30.9989 4.55449 30.9989 4.48416C30.9989 4.41384 30.9852 4.3442 30.9584 4.27925C30.9316 4.2143 30.8924 4.15532 30.8429 4.10569L30.4692 3.72685Z" fill="white"/>
<path id="Vector_6" d="M29.7166 28.3429C30.0097 28.3429 30.2474 28.1034 30.2474 27.808C30.2474 27.5126 30.0097 27.2731 29.7166 27.2731C29.4234 27.2731 29.1858 27.5126 29.1858 27.808C29.1858 28.1034 29.4234 28.3429 29.7166 28.3429Z" fill="white"/>
<path id="Vector_7" d="M3.69736 3.72688C4.11989 3.72688 4.5251 3.55773 4.82387 3.25664C5.12264 2.95555 5.29048 2.54718 5.29048 2.12137C5.29048 1.69556 5.12264 1.2872 4.82387 0.986107C4.5251 0.685016 4.11989 0.515869 3.69736 0.515869C3.27484 0.515869 2.86963 0.685016 2.57086 0.986107C2.27209 1.2872 2.10425 1.69556 2.10425 2.12137C2.10597 2.54664 2.27437 2.954 2.57276 3.25472C2.87116 3.55543 3.27537 3.72514 3.69736 3.72688ZM3.69736 1.58645C3.83814 1.58645 3.97315 1.6428 4.07269 1.74312C4.17224 1.84344 4.22816 1.9795 4.22816 2.12137C4.22816 2.26324 4.17224 2.3993 4.07269 2.49962C3.97315 2.59994 3.83814 2.6563 3.69736 2.6563C3.55659 2.6563 3.42158 2.59994 3.32204 2.49962C3.22249 2.3993 3.16657 2.26324 3.16657 2.12137C3.16676 1.97956 3.22275 1.84361 3.32225 1.74334C3.42175 1.64306 3.55665 1.58664 3.69736 1.58645Z" fill="white"/>
<path id="Vector_8" d="M17.6777 2.32137C23.0526 3.26372 27.3658 7.52847 28.4092 12.9268C28.4331 13.0484 28.498 13.1579 28.5929 13.2367C28.6878 13.3155 28.8069 13.3588 28.9299 13.3591C28.9642 13.3589 28.9985 13.3558 29.0324 13.3496C29.1706 13.3223 29.2924 13.2409 29.3711 13.1231C29.4498 13.0054 29.4788 12.861 29.4519 12.7216C28.3285 6.89168 23.667 2.28767 17.858 1.26692C17.7893 1.2548 17.7189 1.25645 17.6508 1.27177C17.5828 1.2871 17.5184 1.31579 17.4613 1.35621C17.4042 1.39664 17.3556 1.448 17.3183 1.50737C17.2809 1.56673 17.2556 1.63293 17.2436 1.70218C17.2317 1.77157 17.2335 1.84263 17.2489 1.91132C17.2643 1.98001 17.2929 2.04497 17.3333 2.10249C17.3736 2.16 17.4247 2.20893 17.4838 2.24649C17.543 2.28405 17.6088 2.30949 17.6777 2.32137Z" fill="white"/>
<path id="Vector_9" d="M1.73631 13.3496C1.77016 13.3557 1.80446 13.3589 1.83884 13.3591C1.96185 13.3589 2.08099 13.3157 2.17592 13.2369C2.27086 13.158 2.33572 13.0485 2.35945 12.9268C3.40287 7.52846 7.71541 3.26371 13.0903 2.32136C13.159 2.30932 13.2247 2.28375 13.2836 2.24611C13.3425 2.20847 13.3935 2.15948 13.4336 2.10198C13.4737 2.04447 13.5022 1.97957 13.5174 1.91097C13.5326 1.84237 13.5342 1.77141 13.5222 1.70217C13.5103 1.63288 13.485 1.56662 13.4477 1.50721C13.4103 1.4478 13.3618 1.3964 13.3047 1.35596C13.2476 1.31552 13.1831 1.28683 13.115 1.27155C13.0469 1.25627 12.9765 1.2547 12.9078 1.26691C7.10172 2.28766 2.4438 6.89094 1.31604 12.7216C1.28915 12.8611 1.31832 13.0056 1.39713 13.1233C1.47595 13.2411 1.59796 13.3225 1.73631 13.3496Z" fill="white"/>
<path id="Vector_10" d="M29.0317 17.8585C28.8938 17.8311 28.7508 17.86 28.6341 17.9389C28.5174 18.0178 28.4365 18.1401 28.4093 18.2791C27.3666 23.6767 23.0526 27.9392 17.6777 28.8838C17.6089 28.8952 17.5431 28.9203 17.4839 28.9574C17.4247 28.9946 17.3734 29.0431 17.3329 29.1003C17.2923 29.1575 17.2634 29.2222 17.2477 29.2906C17.232 29.3591 17.2299 29.43 17.2415 29.4993C17.2622 29.6247 17.3266 29.7385 17.423 29.8205C17.5195 29.9024 17.6418 29.947 17.7679 29.9463C17.7986 29.9461 17.8292 29.9436 17.8595 29.939C23.6663 28.9175 28.3242 24.3142 29.4505 18.4835C29.4768 18.3447 29.4475 18.201 29.369 18.0839C29.2905 17.9668 29.1693 17.8858 29.0317 17.8585Z" fill="white"/>
<path id="Vector_11" d="M13.091 28.886C7.71542 27.9414 3.40287 23.6789 2.35946 18.2813C2.34622 18.2123 2.31961 18.1466 2.28115 18.0879C2.2427 18.0293 2.19316 17.9788 2.13535 17.9395C2.07755 17.9002 2.01262 17.8727 1.94427 17.8587C1.87593 17.8446 1.80551 17.8443 1.73704 17.8577C1.59868 17.8848 1.47668 17.9663 1.39787 18.084C1.31905 18.2018 1.28988 18.3463 1.31677 18.4857C2.44453 24.3164 7.10246 28.9197 12.9085 29.9412C12.9388 29.9458 12.9695 29.9482 13.0001 29.9485C13.141 29.9493 13.2764 29.8937 13.3766 29.7939C13.4768 29.6942 13.5336 29.5584 13.5346 29.4165C13.5352 29.2894 13.491 29.1662 13.4097 29.069C13.3284 28.9717 13.2154 28.9069 13.091 28.886Z" fill="white"/>
<path id="Vector_12" d="M30.2918 14.9647H27.5797C27.3106 8.60348 22.2208 3.47993 15.9109 3.20514V0.515861C15.905 0.374412 15.8438 0.241048 15.7407 0.14493C15.6375 0.0488132 15.5008 -0.00223917 15.3604 0.00291965C15.2272 0.00850185 15.1009 0.0643287 15.0067 0.159341C14.9124 0.254353 14.857 0.38161 14.8514 0.515861V3.20514C8.5386 3.4792 3.45457 8.60348 3.18263 14.9647H0.51483C0.374472 14.9706 0.242146 15.0323 0.14677 15.1362C0.0513949 15.2402 0.000727526 15.3779 0.00584654 15.5194C0.0115509 15.6536 0.0670068 15.7808 0.161251 15.8757C0.255496 15.9707 0.38167 16.0266 0.51483 16.0323H3.18336C3.45458 22.3936 8.5386 27.5156 14.8514 27.7919V30.4812C14.8573 30.6228 14.9186 30.7562 15.0219 30.8524C15.1252 30.9485 15.2621 30.9995 15.4026 30.9941C15.5358 30.9885 15.6621 30.9327 15.7564 30.8377C15.8506 30.7427 15.906 30.6154 15.9116 30.4812V27.7919C22.2237 27.5156 27.3085 22.3936 27.5804 16.0323H30.2518C30.3923 16.0377 30.5292 15.9867 30.6325 15.8906C30.7358 15.7945 30.7971 15.661 30.803 15.5194C30.8081 15.3776 30.7571 15.2395 30.6613 15.1355C30.5655 15.0315 30.4326 14.97 30.2918 14.9647ZM25.439 16.3804C25.4307 16.5146 25.3726 16.6406 25.2763 16.7336C25.18 16.8266 25.0525 16.8797 24.9191 16.8824C24.8782 17.2426 24.8172 17.6003 24.7366 17.9537C24.8607 18.0019 24.9622 18.0953 25.0212 18.2154C25.0802 18.3355 25.0923 18.4735 25.0551 18.6022C24.8444 19.3254 24.5541 20.0227 24.1898 20.6811C24.1437 20.7644 24.0763 20.8339 23.9946 20.8822C23.9129 20.9305 23.8199 20.9559 23.7252 20.9559C23.6531 20.9557 23.5818 20.9405 23.5158 20.9112C23.3238 21.2193 23.115 21.5165 22.8905 21.8015C22.9783 21.8997 23.0268 22.0272 23.0268 22.1594C23.0268 22.2916 22.9783 22.4192 22.8905 22.5174C22.3917 23.0781 21.8333 23.5818 21.2254 24.0196C21.1202 24.095 20.9914 24.1292 20.863 24.1157C20.7346 24.1022 20.6155 24.042 20.5281 23.9463C20.218 24.1461 19.8968 24.3279 19.5661 24.4908C19.5984 24.6135 19.5863 24.7438 19.5319 24.8583C19.4776 24.9729 19.3845 25.0642 19.2694 25.1158C18.5782 25.4074 17.8568 25.6201 17.1186 25.7497C17.0881 25.7553 17.0572 25.758 17.0263 25.7577C16.9163 25.7576 16.8091 25.7229 16.7196 25.6586C16.6301 25.5942 16.5627 25.5034 16.5267 25.3987C16.1632 25.4442 15.7973 25.4687 15.431 25.4719C15.4056 25.5908 15.3408 25.6973 15.2472 25.7739C15.1535 25.8506 15.0368 25.8927 14.9162 25.8933H14.8907C14.1437 25.858 13.4028 25.7393 12.6817 25.5394C12.5613 25.5058 12.4565 25.4305 12.3858 25.3268C12.315 25.223 12.2828 25.0975 12.2949 24.9722C11.948 24.855 11.6081 24.7177 11.2769 24.5611C11.1991 24.6608 11.0886 24.7293 10.9653 24.7544C10.8419 24.7795 10.7137 24.7596 10.6036 24.6981C9.94476 24.3418 9.32728 23.9126 8.76255 23.4187C8.74789 23.4075 8.73405 23.3952 8.7211 23.3821C8.63515 23.2979 8.58001 23.1869 8.56469 23.0672C8.54937 22.9474 8.57478 22.8259 8.63675 22.7226C8.37981 22.472 8.13706 22.207 7.90964 21.929C7.79777 21.9859 7.66954 22.001 7.54764 21.9718C7.42575 21.9426 7.31805 21.8708 7.2436 21.7692C6.79989 21.1624 6.42411 20.5079 6.1231 19.8179C6.11801 19.8069 6.11292 19.7951 6.10856 19.7834C6.06306 19.6682 6.05863 19.5407 6.09603 19.4225C6.13342 19.3044 6.21032 19.203 6.31361 19.1356C6.18718 18.7905 6.08013 18.4385 5.99295 18.0812C5.86993 18.0848 5.74948 18.0453 5.65214 17.9694C5.55481 17.8935 5.48663 17.7859 5.45924 17.665C5.33918 17.0302 5.2788 16.3854 5.27892 15.7392C5.27892 15.6315 5.28328 15.5245 5.28328 15.4176C5.28328 15.4102 5.28328 15.4029 5.28328 15.3956C5.28991 15.2688 5.341 15.1486 5.42742 15.0562C5.51385 14.9639 5.63 14.9055 5.75518 14.8914C5.78733 14.5287 5.83977 14.1681 5.91224 13.8113C5.79294 13.7627 5.6952 13.6721 5.63717 13.5563C5.57913 13.4405 5.56474 13.3075 5.59667 13.1819C5.78506 12.4519 6.05332 11.7454 6.3965 11.0751C6.45699 10.9574 6.55856 10.8663 6.68165 10.8195C6.80475 10.7727 6.94067 10.7735 7.06327 10.8216C7.2469 10.5103 7.44766 10.2097 7.6646 9.92101C7.57259 9.82596 7.51889 9.69987 7.51392 9.56718C7.50895 9.43449 7.55306 9.30466 7.63769 9.20289C8.11897 8.62608 8.66176 8.10438 9.25626 7.64721C9.36244 7.56803 9.49414 7.53165 9.62554 7.5452C9.75695 7.55876 9.87859 7.62127 9.96665 7.72049C10.2659 7.51708 10.5761 7.33067 10.8959 7.16212C10.8481 7.03538 10.8499 6.89505 10.9009 6.76959C10.952 6.64413 11.0484 6.54293 11.1708 6.4865C11.8515 6.17358 12.5646 5.93766 13.2969 5.78304C13.4296 5.75513 13.568 5.77941 13.6835 5.85093C13.7991 5.92245 13.8832 6.03579 13.9186 6.16775C14.2783 6.114 14.6407 6.08073 15.0041 6.06808C15.0133 5.93552 15.0711 5.81116 15.1663 5.71918C15.2614 5.62721 15.3871 5.57422 15.5189 5.57053H15.5269C16.2747 5.58207 17.019 5.67693 17.7461 5.85338C17.8615 5.88174 17.9641 5.94827 18.0375 6.04232C18.1109 6.13637 18.1509 6.25252 18.1511 6.37218C18.1514 6.40786 18.148 6.44348 18.1409 6.47844C18.4847 6.58332 18.8224 6.7076 19.1524 6.85069C19.2179 6.72914 19.3275 6.63789 19.4584 6.59609C19.5892 6.55428 19.731 6.56516 19.854 6.62646C20.5234 6.96192 21.154 7.37085 21.7344 7.84579C21.8412 7.93357 21.91 8.05976 21.9263 8.19771C21.9426 8.33565 21.905 8.47458 21.8216 8.58517C22.085 8.82715 22.335 9.08352 22.5705 9.35311C22.6812 9.27225 22.8186 9.23755 22.9541 9.25626C23.0896 9.27496 23.2126 9.34562 23.2977 9.4535C23.7609 10.0455 24.1572 10.6877 24.4792 11.3682C24.4795 11.3704 24.4795 11.3726 24.4792 11.3748C24.5368 11.4987 24.5451 11.64 24.5023 11.7698C24.4596 11.8996 24.3691 12.0079 24.2495 12.0724C24.3855 12.4038 24.503 12.7427 24.6014 13.0873C24.7351 13.0645 24.8724 13.0943 24.985 13.1705C25.0975 13.2467 25.1768 13.3636 25.2064 13.4969C25.3698 14.232 25.4523 14.983 25.4521 15.7363C25.4572 15.9539 25.4507 16.1679 25.4376 16.3804H25.439Z" fill="white"/>
</g>
<defs>
<clipPath id="clip0_44_187">
<rect width="31" height="31" fill="white"/>
</clipPath>
</defs>
</svg>
