<svg width="27" height="25" viewBox="0 0 27 25" fill="none" xmlns="http://www.w3.org/2000/svg">
<g id="Frame" clip-path="url(#clip0_44_170)">
<path id="Vector" d="M26.9724 17.6084V17.5963C26.9718 17.5917 26.9718 17.5871 26.9724 17.5826L26.9892 7.484V6.76532C26.9892 6.75687 26.9892 6.74895 26.9892 6.74051V5.09524C26.9892 5.08732 26.9892 5.07993 26.9892 5.07254V4.01193C26.991 3.40386 26.7808 2.8132 26.3931 2.33657V1.9176H25.9709C25.4778 1.5247 24.8605 1.30977 24.2233 1.3092H22.4421V0.599475C22.4421 0.54889 22.4319 0.498801 22.412 0.452066C22.3921 0.405332 22.363 0.362868 22.3263 0.327099C22.2895 0.291329 22.2459 0.262958 22.1979 0.2436C22.1499 0.224242 22.0985 0.214279 22.0465 0.214279C21.9946 0.214279 21.9431 0.224242 21.8951 0.2436C21.8471 0.262958 21.8035 0.291329 21.7668 0.327099C21.7301 0.362868 21.7009 0.405332 21.6811 0.452066C21.6612 0.498801 21.6509 0.54889 21.6509 0.599475V1.3092H12.2393C12.0595 0.919572 11.7679 0.588841 11.3996 0.356812C11.0313 0.124784 10.6019 0.00134277 10.1633 0.00134277C9.7246 0.00134277 9.29528 0.124784 8.92698 0.356812C8.55867 0.588841 8.26707 0.919572 8.08727 1.3092H4.31025C3.80013 1.30948 3.31095 1.50682 2.95009 1.85791C2.58922 2.20901 2.38615 2.68517 2.38543 3.1819V4.30531H2.05596C2.00401 4.30531 1.95257 4.31528 1.90457 4.33464C1.85658 4.35399 1.81297 4.38236 1.77624 4.41813C1.7395 4.4539 1.71036 4.49637 1.69048 4.5431C1.6706 4.58984 1.66037 4.63993 1.66037 4.69051C1.66037 4.7411 1.6706 4.79119 1.69048 4.83792C1.71036 4.88465 1.7395 4.92712 1.77624 4.96289C1.81297 4.99866 1.85658 5.02703 1.90457 5.04639C1.95257 5.06575 2.00401 5.07571 2.05596 5.07571H2.38543V9.03325C2.38615 9.52998 2.58922 10.0061 2.95009 10.3572C3.31095 10.7083 3.80013 10.9057 4.31025 10.906H4.37853V11.5866C4.37881 11.7772 4.45676 11.9599 4.59524 12.0945C4.73373 12.2292 4.92143 12.3048 5.11713 12.3048H6.39059V14.1358C6.39059 14.238 6.43227 14.336 6.50645 14.4082C6.58064 14.4804 6.68126 14.521 6.78618 14.521C6.89109 14.521 6.99171 14.4804 7.0659 14.4082C7.14008 14.336 7.18176 14.238 7.18176 14.1358V12.3016C7.37134 12.2932 7.55031 12.214 7.6815 12.0805C7.81269 11.9469 7.886 11.7693 7.88623 11.5845V10.8986C8.27324 10.8707 8.65034 10.7662 8.9944 10.5915H9.01174V10.583C9.41481 10.3749 9.76081 10.0758 10.0208 9.71077L10.5583 8.95779C10.748 8.69142 11.0011 8.47378 11.296 8.32352C11.5909 8.17327 11.9189 8.09487 12.2517 8.09505H14.6735C14.6901 8.0979 14.707 8.09966 14.7239 8.10032H16.8064C16.9853 8.0999 17.1571 8.1684 17.2843 8.29089C17.4115 8.41338 17.4838 8.57991 17.4854 8.75411V17.2248H2.23478C1.64244 17.2254 1.07452 17.4547 0.655568 17.8624C0.23662 18.2702 0.000860679 18.8231 0 19.3999V23.0936C0 23.2755 0.0742206 23.45 0.206334 23.5786C0.338447 23.7073 0.51763 23.7795 0.704466 23.7795H0.79388H1.74707V24.227C1.74707 24.4305 1.83009 24.6256 1.97785 24.7695C2.12561 24.9134 2.32603 24.9942 2.53499 24.9942H7.21481C7.42365 24.994 7.62383 24.913 7.77145 24.7692C7.91906 24.6253 8.00205 24.4304 8.00219 24.227V23.7795H11.3809H18.7686V24.2291C18.7686 24.4326 18.8516 24.6278 18.9994 24.7716C19.1471 24.9155 19.3475 24.9964 19.5565 24.9964H24.238C24.4469 24.9962 24.6472 24.9153 24.7949 24.7715C24.9427 24.6276 25.0257 24.4326 25.0259 24.2291V23.7795H26.2934C26.4805 23.7787 26.6597 23.7057 26.7917 23.5766C26.9237 23.4474 26.9978 23.2726 26.9978 23.0904L26.9724 17.6084ZM26.1953 8.10455L26.1882 11.4816C25.9925 11.4595 25.7946 11.5 25.6247 11.5972L25.3364 11.7618C25.3243 11.7692 25.3108 11.7742 25.2968 11.7765C25.2827 11.7788 25.2683 11.7783 25.2544 11.7752C25.2405 11.772 25.2274 11.7663 25.2158 11.7582C25.2042 11.7501 25.1943 11.7399 25.1868 11.7281C25.1808 11.7184 25.1764 11.7079 25.1738 11.6969L25.0893 11.3803C25.0486 11.2301 24.9677 11.0931 24.8549 10.9833C24.7421 10.8734 24.6014 10.7947 24.4471 10.755L24.122 10.6727C24.1082 10.6692 24.0953 10.663 24.084 10.6546C24.0726 10.6461 24.0631 10.6356 24.056 10.6236C24.0488 10.6116 24.0442 10.5984 24.0423 10.5846C24.0404 10.5708 24.0414 10.5568 24.045 10.5434C24.0477 10.5344 24.0515 10.5257 24.0564 10.5176L24.225 10.2369C24.3054 10.1026 24.3477 9.95005 24.3477 9.79467C24.3477 9.63929 24.3054 9.4867 24.225 9.35248L24.0564 9.07176C24.0477 9.05777 24.0425 9.04193 24.0414 9.02557C24.0402 9.00922 24.0432 8.99285 24.0499 8.97784C24.0563 8.96323 24.0662 8.95032 24.0787 8.94014C24.0913 8.92996 24.1061 8.92281 24.122 8.91927L24.4471 8.83643C24.6014 8.79698 24.7421 8.71835 24.8549 8.60858C24.9678 8.49881 25.0486 8.36184 25.0893 8.21166L25.1196 8.09821H25.9054C26.001 8.11569 26.0989 8.11783 26.1953 8.10455ZM18.5545 11.6399C18.4613 11.6399 18.3681 11.6447 18.2755 11.6537V10.9851C18.3119 10.9318 18.368 10.8942 18.4321 10.8799C18.4962 10.8657 18.5635 10.876 18.6201 10.9086L18.9924 11.1197C19.1525 11.2114 19.335 11.2598 19.5207 11.2598C19.7065 11.2598 19.889 11.2114 20.0491 11.1197L20.4225 10.9086C20.4513 10.892 20.4833 10.8812 20.5165 10.8767C20.5497 10.8722 20.5834 10.8742 20.6158 10.8824C20.6483 10.8906 20.6787 10.905 20.7054 10.9247C20.7321 10.9444 20.7545 10.9691 20.7714 10.9972C20.7835 11.0168 20.7926 11.038 20.7985 11.06L20.9069 11.4663C20.954 11.6413 21.048 11.8008 21.1794 11.9287C21.3107 12.0566 21.4746 12.1481 21.6542 12.194L22.072 12.2995C22.1045 12.3078 22.1351 12.3223 22.1618 12.3421C22.1886 12.3619 22.2111 12.3866 22.228 12.4149C22.2449 12.4432 22.2559 12.4745 22.2604 12.5069C22.2649 12.5394 22.2627 12.5724 22.2541 12.604C22.2481 12.6256 22.2394 12.6463 22.2281 12.6657L22.0113 13.0282C21.9174 13.1844 21.8679 13.362 21.8679 13.543C21.8679 13.7239 21.9174 13.9016 22.0113 14.0577L22.2281 14.4202C22.2482 14.4532 22.26 14.4903 22.2627 14.5285C22.2653 14.5667 22.2586 14.605 22.2432 14.6403C22.2254 14.683 22.1788 17.0074 22.072 17.0349L21.6542 17.1404C21.6003 17.1539 21.5476 17.1716 21.4965 17.1932H21.2418C21.29 16.9932 21.315 14.539 21.315 14.329C21.314 13.6161 21.0226 12.9328 20.5047 12.429C19.9869 11.9251 19.285 11.6419 18.5529 11.6415L18.5545 11.6399ZM23.7665 4.38921V3.62672H24.2781C24.3651 3.627 24.4484 3.66078 24.51 3.72069C24.5715 3.7806 24.6062 3.86177 24.6064 3.9465V4.3908L23.7665 4.38921ZM24.6064 5.1612V5.6076C24.6063 5.69237 24.5717 5.77362 24.5101 5.83356C24.4486 5.8935 24.3651 5.92724 24.2781 5.92738H23.7665V5.1612H24.6064ZM22.1587 4.38921V3.62672H22.9753V4.3908L22.1587 4.38921ZM22.9753 5.1612V5.92738H22.1587V5.1612H22.9753ZM15.2544 3.62515V5.92738H12.0247C11.9376 5.92738 11.8541 5.89368 11.7925 5.83371C11.7309 5.77374 11.6963 5.69241 11.6963 5.6076V3.94491C11.6963 3.8601 11.7309 3.77877 11.7925 3.7188C11.8541 3.65883 11.9376 3.62515 12.0247 3.62515H15.2544ZM16.0456 3.62515H21.3675V5.92738H16.0456V3.62515ZM18.2749 12.4309C18.3663 12.4184 18.4585 12.4122 18.5508 12.4124C19.0734 12.4129 19.5745 12.6151 19.9443 12.9747C20.314 13.3344 20.5223 13.8222 20.5233 14.3311C20.5233 14.5421 20.4886 16.9979 20.4198 17.1953H18.2749V12.4309ZM10.1644 0.76939C10.3853 0.770341 10.6033 0.818848 10.8028 0.91144C11.0022 1.00403 11.1782 1.13841 11.3181 1.30497H9.00958C9.14971 1.13906 9.32572 1.00532 9.52506 0.913282C9.72439 0.821249 9.94213 0.773197 10.1627 0.772553L10.1644 0.76939ZM7.22023 24.2281L2.5415 24.2312V23.7817H7.21481L7.22023 24.2281ZM19.5636 24.2312V23.7817H24.2401V24.2281L19.5636 24.2312Z" fill="white"/>
<path id="Vector_2" d="M12.7113 5.17272C12.7919 5.17272 12.8708 5.14944 12.9379 5.10583C13.0049 5.06222 13.0572 5.00023 13.0882 4.92768C13.1191 4.85514 13.1272 4.7753 13.1116 4.69826C13.0959 4.62121 13.0572 4.55041 13.0002 4.4948C12.9432 4.43919 12.8706 4.40127 12.7915 4.38582C12.7125 4.37037 12.6305 4.37808 12.5559 4.40799C12.4813 4.43791 12.4175 4.48867 12.3725 4.55387C12.3276 4.61907 12.3034 4.69579 12.3032 4.77433C12.303 4.82671 12.3134 4.87861 12.3339 4.92704C12.3544 4.97547 12.3845 5.01947 12.4226 5.0565C12.4606 5.09354 12.5058 5.12288 12.5555 5.14282C12.6053 5.16277 12.6586 5.17293 12.7124 5.17272H12.7113Z" fill="white"/>
<path id="Vector_3" d="M25.0356 9.79573C25.0354 9.84793 25.0459 9.89964 25.0663 9.94791C25.0867 9.99617 25.1167 10.04 25.1545 10.077C25.1924 10.114 25.2374 10.1433 25.2869 10.1633C25.3364 10.1833 25.3895 10.1936 25.4431 10.1936C25.5238 10.1936 25.6026 10.1703 25.6697 10.1267C25.7368 10.083 25.7891 10.021 25.82 9.94844C25.8509 9.87586 25.859 9.796 25.8433 9.71894C25.8276 9.64188 25.7888 9.57108 25.7318 9.51549C25.6748 9.4599 25.6021 9.42202 25.523 9.40663C25.4439 9.39124 25.3619 9.39902 25.2873 9.42902C25.2127 9.45901 25.149 9.50986 25.1041 9.57513C25.0592 9.6404 25.0351 9.71717 25.035 9.79573H25.0356Z" fill="white"/>
<path id="Vector_4" d="M19.2373 13.5675C19.1291 13.5675 19.0253 13.6094 18.9487 13.6839C18.8722 13.7584 18.8292 13.8595 18.8292 13.9648C18.8292 14.0702 18.8722 14.1713 18.9487 14.2458C19.0253 14.3203 19.1291 14.3622 19.2373 14.3622C19.3455 14.3622 19.4493 14.3203 19.5258 14.2458C19.6023 14.1713 19.6453 14.0702 19.6453 13.9648C19.6453 13.8595 19.6023 13.7584 19.5258 13.6839C19.4493 13.6094 19.3455 13.5675 19.2373 13.5675Z" fill="white"/>
</g>
<defs>
<clipPath id="clip0_44_170">
<rect width="27" height="25" fill="white"/>
</clipPath>
</defs>
</svg>
